<?xml version="1.0" encoding="UTF-8" standalone="no"?>
<!-- Created with Inkscape (http://www.inkscape.org/) -->

<svg
   width="512"
   height="256"
   viewBox="0 0 135.46666 67.733333"
   version="1.1"
   id="svg5"
   xml:space="preserve"
   inkscape:version="1.2.2 (b0a8486541, 2022-12-01)"
   sodipodi:docname="banner.svg"
   xmlns:inkscape="http://www.inkscape.org/namespaces/inkscape"
   xmlns:sodipodi="http://sodipodi.sourceforge.net/DTD/sodipodi-0.dtd"
   xmlns="http://www.w3.org/2000/svg"
   xmlns:svg="http://www.w3.org/2000/svg"><sodipodi:namedview
     id="namedview7"
     pagecolor="#f5f5f5"
     bordercolor="#eeeeee"
     borderopacity="1"
     inkscape:showpageshadow="0"
     inkscape:pageopacity="1"
     inkscape:pagecheckerboard="0"
     inkscape:deskcolor="#505050"
     inkscape:document-units="px"
     showgrid="false"
     showguides="true"
     inkscape:zoom="1.4142136"
     inkscape:cx="218.84955"
     inkscape:cy="102.53048"
     inkscape:window-width="1920"
     inkscape:window-height="1010"
     inkscape:window-x="0"
     inkscape:window-y="0"
     inkscape:window-maximized="1"
     inkscape:current-layer="g1420" /><defs
     id="defs2" /><g
     id="g1420"
     inkscape:label="banner"><g
       id="g1708"
       inkscape:label="keyboard"
       sodipodi:insensitive="true"><path
         id="rect1204"
         style="fill:#2c6e49;fill-opacity:1;stroke:none;stroke-width:0.180262;stroke-linecap:round;stroke-linejoin:round;stroke-dasharray:none;stroke-opacity:1;paint-order:stroke fill markers"
         d="m 68.398493,40.08563 h 2.167961 c 0.10093,0 0.182183,0.07723 0.182183,0.173134 v 0.882986 c 0,0.09592 -0.08125,0.173134 -0.182183,0.173134 h -2.167961 c -0.100929,0 -0.182183,-0.07723 -0.182183,-0.173134 v -0.882986 c 0,-0.09592 0.08125,-0.173134 0.182183,-0.173134 z" /><path
         id="rect2818"
         style="fill:#2c6e49;fill-opacity:1;stroke:none;stroke-width:0.180262;stroke-linecap:round;stroke-linejoin:round;stroke-dasharray:none;stroke-opacity:1;paint-order:stroke fill markers"
         d="m 71.602597,40.08563 h 2.167961 c 0.10093,0 0.182183,0.07723 0.182183,0.173134 v 0.882986 c 0,0.09592 -0.08125,0.173134 -0.182183,0.173134 h -2.167961 c -0.10093,0 -0.182183,-0.07723 -0.182183,-0.173134 v -0.882986 c 0,-0.09592 0.08125,-0.173134 0.182183,-0.173134 z" /><path
         id="rect2820"
         style="fill:#2c6e49;fill-opacity:1;stroke:none;stroke-width:0.180262;stroke-linecap:round;stroke-linejoin:round;stroke-dasharray:none;stroke-opacity:1;paint-order:stroke fill markers"
         d="m 74.806701,40.08563 h 2.167962 c 0.10093,0 0.182182,0.07723 0.182182,0.173134 v 0.882986 c 0,0.09592 -0.08125,0.173134 -0.182182,0.173134 h -2.167962 c -0.10093,0 -0.182183,-0.07723 -0.182183,-0.173134 v -0.882986 c 0,-0.09592 0.08125,-0.173134 0.182183,-0.173134 z" /><path
         id="rect2824"
         style="fill:#2c6e49;fill-opacity:1;stroke:none;stroke-width:0.180262;stroke-linecap:round;stroke-linejoin:round;stroke-dasharray:none;stroke-opacity:1;paint-order:stroke fill markers"
         d="m 78.010541,40.08563 h 2.167962 c 0.100929,0 0.182182,0.07723 0.182182,0.173134 v 0.882986 c 0,0.09592 -0.08125,0.173134 -0.182182,0.173134 h -2.167962 c -0.100931,0 -0.182183,-0.07723 -0.182183,-0.173134 v -0.882986 c 0,-0.09592 0.08125,-0.173134 0.182183,-0.173134 z" /><path
         id="rect2826"
         style="fill:#2c6e49;fill-opacity:1;stroke:none;stroke-width:0.180262;stroke-linecap:round;stroke-linejoin:round;stroke-dasharray:none;stroke-opacity:1;paint-order:stroke fill markers"
         d="m 81.214645,40.08563 h 2.167962 c 0.10093,0 0.182182,0.07723 0.182182,0.173134 v 0.882986 c 0,0.09592 -0.08125,0.173134 -0.182182,0.173134 h -2.167962 c -0.100931,0 -0.182183,-0.07723 -0.182183,-0.173134 v -0.882986 c 0,-0.09592 0.08125,-0.173134 0.182183,-0.173134 z" /><path
         id="rect2828"
         style="fill:#2c6e49;fill-opacity:1;stroke:none;stroke-width:0.180262;stroke-linecap:round;stroke-linejoin:round;stroke-dasharray:none;stroke-opacity:1;paint-order:stroke fill markers"
         d="m 84.418749,40.08563 h 2.167962 c 0.10093,0 0.182182,0.07723 0.182182,0.173134 v 0.882986 c 0,0.09592 -0.08125,0.173134 -0.182182,0.173134 h -2.167962 c -0.100931,0 -0.182183,-0.07723 -0.182183,-0.173134 v -0.882986 c 0,-0.09592 0.08125,-0.173134 0.182183,-0.173134 z" /><path
         id="rect2874"
         style="fill:#2c6e49;fill-opacity:1;stroke:none;stroke-width:0.180262;stroke-linecap:round;stroke-linejoin:round;stroke-dasharray:none;stroke-opacity:1;paint-order:stroke fill markers"
         d="m 87.622588,40.08563 h 2.167961 c 0.100931,0 0.182183,0.07723 0.182183,0.173134 v 0.882986 c 0,0.09592 -0.08125,0.173134 -0.182183,0.173134 h -2.167961 c -0.100931,0 -0.182183,-0.07723 -0.182183,-0.173134 v -0.882986 c 0,-0.09592 0.08125,-0.173134 0.182183,-0.173134 z" /><path
         id="rect2876"
         style="fill:#0b1728;fill-opacity:1;stroke:none;stroke-width:0.180262;stroke-linecap:round;stroke-linejoin:round;stroke-dasharray:none;stroke-opacity:1;paint-order:stroke fill markers"
         d="m 90.826693,40.08563 h 2.167961 c 0.10093,0 0.182183,0.07723 0.182183,0.173134 v 0.882986 c 0,0.09592 -0.08125,0.173134 -0.182183,0.173134 h -2.167961 c -0.10093,0 -0.182183,-0.07723 -0.182183,-0.173134 v -0.882986 c 0,-0.09592 0.08125,-0.173134 0.182183,-0.173134 z" /><path
         id="rect2882"
         style="fill:#0b1728;fill-opacity:1;stroke:none;stroke-width:0.180262;stroke-linecap:round;stroke-linejoin:round;stroke-dasharray:none;stroke-opacity:1;paint-order:stroke fill markers"
         d="m 49.174663,40.08563 h 2.16796 c 0.100944,0 0.182183,0.07723 0.182183,0.173135 v 0.882985 c 0,0.09592 -0.08125,0.173134 -0.182183,0.173134 h -2.16796 c -0.100944,0 -0.182184,-0.07723 -0.182184,-0.173134 v -0.882985 c 0,-0.09593 0.08125,-0.173135 0.182184,-0.173135 z" /><path
         id="rect2884"
         style="fill:#2c6e49;fill-opacity:1;stroke:none;stroke-width:0.180262;stroke-linecap:round;stroke-linejoin:round;stroke-dasharray:none;stroke-opacity:1;paint-order:stroke fill markers"
         d="m 52.378502,40.08563 h 2.167961 c 0.10093,0 0.182183,0.07723 0.182183,0.173134 v 0.882986 c 0,0.09592 -0.08125,0.173134 -0.182183,0.173134 h -2.167961 c -0.10093,0 -0.182183,-0.07723 -0.182183,-0.173134 v -0.882986 c 0,-0.09592 0.08125,-0.173134 0.182183,-0.173134 z" /><path
         id="rect2886"
         style="fill:#2c6e49;fill-opacity:1;stroke:none;stroke-width:0.180262;stroke-linecap:round;stroke-linejoin:round;stroke-dasharray:none;stroke-opacity:1;paint-order:stroke fill markers"
         d="m 55.582606,40.08563 h 2.167961 c 0.100931,0 0.182183,0.07723 0.182183,0.173134 v 0.882986 c 0,0.09592 -0.08125,0.173134 -0.182183,0.173134 h -2.167961 c -0.100931,0 -0.182183,-0.07723 -0.182183,-0.173134 v -0.882986 c 0,-0.09592 0.08125,-0.173134 0.182183,-0.173134 z" /><path
         id="rect2888"
         style="fill:#2c6e49;fill-opacity:1;stroke:none;stroke-width:0.180262;stroke-linecap:round;stroke-linejoin:round;stroke-dasharray:none;stroke-opacity:1;paint-order:stroke fill markers"
         d="m 58.78671,40.08563 h 2.167961 c 0.10093,0 0.182183,0.07723 0.182183,0.173134 v 0.882986 c 0,0.09592 -0.08125,0.173134 -0.182183,0.173134 H 58.78671 c -0.10093,0 -0.182183,-0.07723 -0.182183,-0.173134 v -0.882986 c 0,-0.09592 0.08125,-0.173134 0.182183,-0.173134 z" /><path
         id="rect2890"
         style="fill:#2c6e49;fill-opacity:1;stroke:none;stroke-width:0.180262;stroke-linecap:round;stroke-linejoin:round;stroke-dasharray:none;stroke-opacity:1;paint-order:stroke fill markers"
         d="m 61.99055,40.08563 h 2.167961 c 0.100929,0 0.182183,0.07723 0.182183,0.173134 v 0.882986 c 0,0.09592 -0.08125,0.173134 -0.182183,0.173134 H 61.99055 c -0.10093,0 -0.182183,-0.07723 -0.182183,-0.173134 v -0.882986 c 0,-0.09592 0.08125,-0.173134 0.182183,-0.173134 z" /><path
         id="rect2892"
         style="fill:#2c6e49;fill-opacity:1;stroke:none;stroke-width:0.180262;stroke-linecap:round;stroke-linejoin:round;stroke-dasharray:none;stroke-opacity:1;paint-order:stroke fill markers"
         d="m 65.168195,40.08563 h 2.167961 c 0.10093,0 0.182183,0.07723 0.182183,0.173134 v 0.882986 c 0,0.09592 -0.08125,0.173134 -0.182183,0.173134 h -2.167961 c -0.10093,0 -0.182183,-0.07723 -0.182183,-0.173134 v -0.882986 c 0,-0.09592 0.08125,-0.173134 0.182183,-0.173134 z" /><path
         id="rect3691"
         style="fill:#2c6e49;fill-opacity:1;stroke:none;stroke-width:0.183526;stroke-linecap:round;stroke-linejoin:round;stroke-dasharray:none;stroke-opacity:1;paint-order:stroke fill markers"
         d="m 49.182107,41.921459 h 2.068139 c 0.09963,0 0.17984,0.08111 0.17984,0.181798 v 2.090678 c 0,0.100717 -0.08023,0.181799 -0.17984,0.181799 h -2.068139 c -0.09963,0 -0.179838,-0.0811 -0.179838,-0.181799 v -2.090678 c 0,-0.100716 0.08024,-0.181798 0.179838,-0.181798 z" /><path
         id="rect3695"
         style="fill:#2c6e49;fill-opacity:1;stroke:none;stroke-width:0.183527;stroke-linecap:round;stroke-linejoin:round;stroke-dasharray:none;stroke-opacity:1;paint-order:stroke fill markers"
         d="m 52.29731,41.921459 h 2.068141 c 0.09963,0 0.179839,0.08111 0.179839,0.181798 v 2.090678 c 0,0.100717 -0.08023,0.181799 -0.179839,0.181799 H 52.29731 c -0.09963,0 -0.179837,-0.0811 -0.179837,-0.181799 v -2.090678 c 0,-0.100716 0.08024,-0.181798 0.179837,-0.181798 z" /><path
         id="rect3697"
         style="fill:#2c6e49;fill-opacity:1;stroke:none;stroke-width:0.183526;stroke-linecap:round;stroke-linejoin:round;stroke-dasharray:none;stroke-opacity:1;paint-order:stroke fill markers"
         d="m 55.384205,41.921459 h 2.068139 c 0.09963,0 0.17984,0.08111 0.17984,0.181798 v 2.090678 c 0,0.100717 -0.08023,0.181799 -0.17984,0.181799 h -2.068139 c -0.09963,0 -0.179838,-0.0811 -0.179838,-0.181799 v -2.090678 c 0,-0.100716 0.08024,-0.181798 0.179838,-0.181798 z" /><path
         id="rect3699"
         style="fill:#2c6e49;fill-opacity:1;stroke:none;stroke-width:0.183526;stroke-linecap:round;stroke-linejoin:round;stroke-dasharray:none;stroke-opacity:1;paint-order:stroke fill markers"
         d="m 58.50179,41.921459 h 2.068139 c 0.09963,0 0.17984,0.08111 0.17984,0.181798 v 2.090678 c 0,0.100717 -0.08023,0.181799 -0.17984,0.181799 H 58.50179 c -0.09963,0 -0.179838,-0.0811 -0.179838,-0.181799 v -2.090678 c 0,-0.100716 0.08024,-0.181798 0.179838,-0.181798 z" /><path
         id="rect3701"
         style="fill:#2c6e49;fill-opacity:1;stroke:none;stroke-width:0.183526;stroke-linecap:round;stroke-linejoin:round;stroke-dasharray:none;stroke-opacity:1;paint-order:stroke fill markers"
         d="m 61.602177,41.921459 h 2.06814 c 0.09963,0 0.179839,0.08111 0.179839,0.181798 v 2.090678 c 0,0.100717 -0.08023,0.181799 -0.179839,0.181799 h -2.06814 c -0.09963,0 -0.179838,-0.0811 -0.179838,-0.181799 v -2.090678 c 0,-0.100716 0.08024,-0.181798 0.179838,-0.181798 z" /><path
         id="rect3703"
         style="fill:#2c6e49;fill-opacity:1;stroke:none;stroke-width:0.183526;stroke-linecap:round;stroke-linejoin:round;stroke-dasharray:none;stroke-opacity:1;paint-order:stroke fill markers"
         d="m 64.717381,41.921459 h 2.06814 c 0.09963,0 0.17984,0.08111 0.17984,0.181798 v 2.090678 c 0,0.100717 -0.08023,0.181799 -0.17984,0.181799 h -2.06814 c -0.09963,0 -0.179837,-0.0811 -0.179837,-0.181799 v -2.090678 c 0,-0.100716 0.08024,-0.181798 0.179837,-0.181798 z" /><path
         id="rect3705"
         style="fill:#2c6e49;fill-opacity:1;stroke:none;stroke-width:0.183526;stroke-linecap:round;stroke-linejoin:round;stroke-dasharray:none;stroke-opacity:1;paint-order:stroke fill markers"
         d="m 67.830732,41.921459 h 2.068141 c 0.09963,0 0.17984,0.08111 0.17984,0.181798 v 2.090678 c 0,0.100717 -0.08023,0.181799 -0.17984,0.181799 h -2.068141 c -0.09963,0 -0.179836,-0.0811 -0.179836,-0.181799 v -2.090678 c 0,-0.100716 0.08024,-0.181798 0.179836,-0.181798 z" /><path
         id="rect3707"
         style="fill:#2c6e49;fill-opacity:1;stroke:none;stroke-width:0.183526;stroke-linecap:round;stroke-linejoin:round;stroke-dasharray:none;stroke-opacity:1;paint-order:stroke fill markers"
         d="M 70.921859,41.921459 H 72.99 c 0.09963,0 0.17984,0.08111 0.17984,0.181798 v 2.090678 c 0,0.100717 -0.08023,0.181799 -0.17984,0.181799 h -2.068141 c -0.09963,0 -0.179836,-0.0811 -0.179836,-0.181799 v -2.090678 c 0,-0.100716 0.08024,-0.181798 0.179836,-0.181798 z" /><path
         id="rect3709"
         style="fill:#2c6e49;fill-opacity:1;stroke:none;stroke-width:0.183526;stroke-linecap:round;stroke-linejoin:round;stroke-dasharray:none;stroke-opacity:1;paint-order:stroke fill markers"
         d="m 74.032566,41.921459 h 2.06814 c 0.09963,0 0.17984,0.08111 0.17984,0.181798 v 2.090678 c 0,0.100717 -0.08023,0.181799 -0.17984,0.181799 h -2.06814 c -0.09963,0 -0.179837,-0.0811 -0.179837,-0.181799 v -2.090678 c 0,-0.100716 0.08024,-0.181798 0.179837,-0.181798 z" /><path
         id="rect3711"
         style="fill:#2c6e49;fill-opacity:1;stroke:none;stroke-width:0.183526;stroke-linecap:round;stroke-linejoin:round;stroke-dasharray:none;stroke-opacity:1;paint-order:stroke fill markers"
         d="m 77.121312,41.921459 h 2.068139 c 0.09963,0 0.17984,0.08111 0.17984,0.181798 v 2.090678 c 0,0.100717 -0.08023,0.181799 -0.17984,0.181799 h -2.068139 c -0.09963,0 -0.179838,-0.0811 -0.179838,-0.181799 v -2.090678 c 0,-0.100716 0.08024,-0.181798 0.179838,-0.181798 z" /><path
         id="rect3713"
         style="fill:#2c6e49;fill-opacity:1;stroke:none;stroke-width:0.183526;stroke-linecap:round;stroke-linejoin:round;stroke-dasharray:none;stroke-opacity:1;paint-order:stroke fill markers"
         d="m 80.208205,41.921459 h 2.06814 c 0.09963,0 0.17984,0.08111 0.17984,0.181798 v 2.090678 c 0,0.100717 -0.08023,0.181799 -0.17984,0.181799 h -2.06814 c -0.09963,0 -0.179837,-0.0811 -0.179837,-0.181799 v -2.090678 c 0,-0.100716 0.08024,-0.181798 0.179837,-0.181798 z" /><path
         id="rect3715"
         style="fill:#2c6e49;fill-opacity:1;stroke:none;stroke-width:0.183526;stroke-linecap:round;stroke-linejoin:round;stroke-dasharray:none;stroke-opacity:1;paint-order:stroke fill markers"
         d="m 83.32579,41.921459 h 2.06814 c 0.09963,0 0.17984,0.08111 0.17984,0.181798 v 2.090678 c 0,0.100717 -0.08023,0.181799 -0.17984,0.181799 h -2.06814 c -0.09963,0 -0.179837,-0.0811 -0.179837,-0.181799 v -2.090678 c 0,-0.100716 0.08024,-0.181798 0.179837,-0.181798 z" /><path
         id="rect3717"
         style="fill:#2c6e49;fill-opacity:1;stroke:none;stroke-width:0.183526;stroke-linecap:round;stroke-linejoin:round;stroke-dasharray:none;stroke-opacity:1;paint-order:stroke fill markers"
         d="m 86.455812,41.921459 h 2.068139 c 0.09963,0 0.17984,0.08111 0.17984,0.181798 v 2.090678 c 0,0.100717 -0.08023,0.181799 -0.17984,0.181799 h -2.068139 c -0.09963,0 -0.179838,-0.0811 -0.179838,-0.181799 v -2.090678 c 0,-0.100716 0.08024,-0.181798 0.179838,-0.181798 z" /><path
         id="rect3719"
         style="fill:#2c6e49;fill-opacity:1;stroke:none;stroke-width:0.185686;stroke-linecap:round;stroke-linejoin:round;stroke-dasharray:none;stroke-opacity:1;paint-order:stroke fill markers"
         d="m 89.476856,41.921459 h 3.474872 c 0.101989,0 0.184098,0.08111 0.184098,0.181798 v 2.090678 c 0,0.100717 -0.0821,0.181799 -0.184098,0.181799 h -3.474872 c -0.101992,0 -0.184103,-0.0811 -0.184103,-0.181799 v -2.090678 c 0,-0.100716 0.0821,-0.181798 0.184103,-0.181798 z" /><path
         id="rect3717-6"
         style="fill:#2c6e49;fill-opacity:1;stroke:none;stroke-width:0.183526;stroke-linecap:round;stroke-linejoin:round;stroke-dasharray:none;stroke-opacity:1;paint-order:stroke fill markers"
         d="m 53.786914,44.971148 h 2.06814 c 0.09963,0 0.17984,0.08111 0.17984,0.181797 v 2.090678 c 0,0.100716 -0.08023,0.1818 -0.17984,0.1818 h -2.06814 c -0.09963,0 -0.179837,-0.0811 -0.179837,-0.1818 v -2.090678 c 0,-0.100716 0.08024,-0.181797 0.179837,-0.181797 z" /><path
         id="rect3719-3"
         style="fill:#2c6e49;fill-opacity:1;stroke:none;stroke-width:0.186324;stroke-linecap:round;stroke-linejoin:round;stroke-dasharray:none;stroke-opacity:1;paint-order:stroke fill markers"
         d="m 49.19055,44.971148 h 3.498795 c 0.102691,0 0.185365,0.08111 0.185365,0.181797 v 2.090679 c 0,0.100717 -0.08266,0.181799 -0.185365,0.181799 H 49.19055 c -0.102695,0 -0.185371,-0.0811 -0.185371,-0.181799 v -2.090679 c 0,-0.100715 0.0827,-0.181797 0.185371,-0.181797 z" /><path
         id="rect4614"
         style="fill:#2c6e49;fill-opacity:1;stroke:none;stroke-width:0.183526;stroke-linecap:round;stroke-linejoin:round;stroke-dasharray:none;stroke-opacity:1;paint-order:stroke fill markers"
         d="m 56.873544,44.971148 h 2.068139 c 0.09963,0 0.17984,0.08111 0.17984,0.181797 v 2.090678 c 0,0.100718 -0.08023,0.1818 -0.17984,0.1818 h -2.068139 c -0.09963,0 -0.179838,-0.0811 -0.179838,-0.1818 v -2.090678 c 0,-0.100715 0.08024,-0.181797 0.179838,-0.181797 z" /><path
         id="rect4616"
         style="fill:#2c6e49;fill-opacity:1;stroke:none;stroke-width:0.183526;stroke-linecap:round;stroke-linejoin:round;stroke-dasharray:none;stroke-opacity:1;paint-order:stroke fill markers"
         d="m 59.974195,44.971148 h 2.06814 c 0.09963,0 0.17984,0.08111 0.17984,0.181797 v 2.090678 c 0,0.100718 -0.08023,0.1818 -0.17984,0.1818 h -2.06814 c -0.09963,0 -0.179837,-0.0811 -0.179837,-0.1818 v -2.090678 c 0,-0.100715 0.08024,-0.181797 0.179837,-0.181797 z" /><path
         id="rect4618"
         style="fill:#2c6e49;fill-opacity:1;stroke:none;stroke-width:0.183526;stroke-linecap:round;stroke-linejoin:round;stroke-dasharray:none;stroke-opacity:1;paint-order:stroke fill markers"
         d="m 63.071939,44.971148 h 2.068138 c 0.09963,0 0.17984,0.08111 0.17984,0.181797 v 2.090678 c 0,0.100718 -0.08023,0.1818 -0.17984,0.1818 h -2.068138 c -0.09963,0 -0.179839,-0.0811 -0.179839,-0.1818 v -2.090678 c 0,-0.100715 0.08024,-0.181797 0.179839,-0.181797 z" /><path
         id="rect4648"
         style="fill:#2c6e49;fill-opacity:1;stroke:none;stroke-width:0.183526;stroke-linecap:round;stroke-linejoin:round;stroke-dasharray:none;stroke-opacity:1;paint-order:stroke fill markers"
         d="m 66.194021,44.971148 h 2.068139 c 0.09962,0 0.17984,0.08111 0.17984,0.181797 v 2.090678 c 0,0.100718 -0.08022,0.1818 -0.17984,0.1818 h -2.068139 c -0.09963,0 -0.179838,-0.0811 -0.179838,-0.1818 v -2.090678 c 0,-0.100715 0.08025,-0.181797 0.179838,-0.181797 z" /><path
         id="rect4650"
         style="fill:#2c6e49;fill-opacity:1;stroke:none;stroke-width:0.183526;stroke-linecap:round;stroke-linejoin:round;stroke-dasharray:none;stroke-opacity:1;paint-order:stroke fill markers"
         d="m 69.306844,44.971148 h 2.068139 c 0.09963,0 0.17984,0.08111 0.17984,0.181797 v 2.090678 c 0,0.100718 -0.08024,0.1818 -0.17984,0.1818 h -2.068139 c -0.09963,0 -0.179838,-0.0811 -0.179838,-0.1818 v -2.090678 c 0,-0.100715 0.08024,-0.181797 0.179838,-0.181797 z" /><path
         id="rect4652"
         style="fill:#2c6e49;fill-opacity:1;stroke:none;stroke-width:0.183526;stroke-linecap:round;stroke-linejoin:round;stroke-dasharray:none;stroke-opacity:1;paint-order:stroke fill markers"
         d="m 72.381037,44.971148 h 2.06814 c 0.09963,0 0.17984,0.08111 0.17984,0.181797 v 2.090678 c 0,0.100718 -0.08023,0.1818 -0.17984,0.1818 h -2.06814 c -0.09963,0 -0.179837,-0.0811 -0.179837,-0.1818 v -2.090678 c 0,-0.100715 0.08024,-0.181797 0.179837,-0.181797 z" /><path
         id="rect4654"
         style="fill:#2c6e49;fill-opacity:1;stroke:none;stroke-width:0.183526;stroke-linecap:round;stroke-linejoin:round;stroke-dasharray:none;stroke-opacity:1;paint-order:stroke fill markers"
         d="m 75.478778,44.971148 h 2.068141 c 0.09963,0 0.179839,0.08111 0.179839,0.181797 v 2.090678 c 0,0.100718 -0.08023,0.1818 -0.179839,0.1818 h -2.068141 c -0.09963,0 -0.179837,-0.0811 -0.179837,-0.1818 v -2.090678 c 0,-0.100715 0.08024,-0.181797 0.179837,-0.181797 z" /><path
         id="rect4656"
         style="fill:#2c6e49;fill-opacity:1;stroke:none;stroke-width:0.183526;stroke-linecap:round;stroke-linejoin:round;stroke-dasharray:none;stroke-opacity:1;paint-order:stroke fill markers"
         d="m 78.541066,44.971148 h 2.06814 c 0.09963,0 0.17984,0.08111 0.17984,0.181797 v 2.090678 c 0,0.100718 -0.08023,0.1818 -0.17984,0.1818 h -2.06814 c -0.09963,0 -0.179837,-0.0811 -0.179837,-0.1818 v -2.090678 c 0,-0.100715 0.08024,-0.181797 0.179837,-0.181797 z" /><path
         id="rect4658"
         style="fill:#2c6e49;fill-opacity:1;stroke:none;stroke-width:0.183526;stroke-linecap:round;stroke-linejoin:round;stroke-dasharray:none;stroke-opacity:1;paint-order:stroke fill markers"
         d="m 81.627431,44.971148 h 2.068139 c 0.09963,0 0.17984,0.08111 0.17984,0.181797 v 2.090678 c 0,0.100718 -0.08023,0.1818 -0.17984,0.1818 h -2.068139 c -0.09963,0 -0.179838,-0.0811 -0.179838,-0.1818 v -2.090678 c 0,-0.100715 0.08024,-0.181797 0.179838,-0.181797 z" /><path
         id="rect4660"
         style="fill:#2c6e49;fill-opacity:1;stroke:none;stroke-width:0.183526;stroke-linecap:round;stroke-linejoin:round;stroke-dasharray:none;stroke-opacity:1;paint-order:stroke fill markers"
         d="m 84.728083,44.971148 h 2.068139 c 0.09963,0 0.17984,0.08111 0.17984,0.181797 v 2.090678 c 0,0.100718 -0.08023,0.1818 -0.17984,0.1818 h -2.068139 c -0.09963,0 -0.179838,-0.0811 -0.179838,-0.1818 v -2.090678 c 0,-0.100715 0.08024,-0.181797 0.179838,-0.181797 z" /><path
         id="rect4662"
         style="fill:#2c6e49;fill-opacity:1;stroke:none;stroke-width:0.183526;stroke-linecap:round;stroke-linejoin:round;stroke-dasharray:none;stroke-opacity:1;paint-order:stroke fill markers"
         d="m 87.825825,44.971148 h 2.068139 c 0.09963,0 0.17984,0.08111 0.17984,0.181797 v 2.090678 c 0,0.100718 -0.08023,0.1818 -0.17984,0.1818 h -2.068139 c -0.09963,0 -0.179838,-0.0811 -0.179838,-0.1818 v -2.090678 c 0,-0.100715 0.08024,-0.181797 0.179838,-0.181797 z" /><path
         id="rect4664"
         style="fill:#2c6e49;fill-opacity:1;stroke:none;stroke-width:0.183526;stroke-linecap:round;stroke-linejoin:round;stroke-dasharray:none;stroke-opacity:1;paint-order:stroke fill markers"
         d="m 90.917215,44.971148 h 2.06814 c 0.09963,0 0.17984,0.08111 0.17984,0.181797 v 2.090678 c 0,0.100718 -0.08023,0.1818 -0.17984,0.1818 h -2.06814 c -0.09963,0 -0.179837,-0.0811 -0.179837,-0.1818 v -2.090678 c 0,-0.100715 0.08024,-0.181797 0.179837,-0.181797 z" /><path
         id="rect3719-3-3"
         style="display:inline;fill:#0b1728;fill-opacity:1;stroke:none;stroke-width:0.188088;stroke-linecap:round;stroke-linejoin:round;stroke-dasharray:none;stroke-opacity:1;paint-order:stroke fill markers"
         d="m 49.186975,48.023955 h 4.32879 c 0.103648,0 0.187092,0.08186 0.187092,0.18355 v 2.071037 c 0,0.101685 -0.08344,0.183548 -0.187092,0.183548 h -4.32879 c -0.103642,0 -0.187087,-0.08186 -0.187087,-0.183548 v -2.071037 c 0,-0.101684 0.08344,-0.18355 0.187087,-0.18355 z" /><path
         id="rect3717-6-6"
         style="display:inline;fill:#2c6e49;fill-opacity:1;stroke:none;stroke-width:0.183526;stroke-linecap:round;stroke-linejoin:round;stroke-dasharray:none;stroke-opacity:1;paint-order:stroke fill markers"
         d="m 54.56479,48.002766 h 2.068139 c 0.09963,0 0.17984,0.08111 0.17984,0.181798 v 2.090677 c 0,0.100716 -0.08022,0.1818 -0.17984,0.1818 H 54.56479 c -0.09963,0 -0.179838,-0.0811 -0.179838,-0.1818 v -2.090677 c 0,-0.100716 0.08024,-0.181798 0.179838,-0.181798 z" /><path
         id="rect459"
         style="display:inline;fill:#2c6e49;fill-opacity:1;stroke:none;stroke-width:0.183502;stroke-linecap:round;stroke-linejoin:round;stroke-dasharray:none;stroke-opacity:1;paint-order:stroke fill markers"
         d="m 57.700259,48.002766 h 2.0456 c 0.09854,0 0.17788,0.08198 0.17788,0.183758 v 2.113216 c 0,0.101803 -0.07935,0.183759 -0.17788,0.183759 h -2.0456 c -0.09854,0 -0.177878,-0.08197 -0.177878,-0.183759 v -2.113216 c 0,-0.101801 0.07937,-0.183758 0.177878,-0.183758 z" /><path
         id="rect461"
         style="display:inline;fill:#2c6e49;fill-opacity:1;stroke:none;stroke-width:0.18451;stroke-linecap:round;stroke-linejoin:round;stroke-dasharray:none;stroke-opacity:1;paint-order:stroke fill markers"
         d="m 60.825624,48.002766 h 2.068141 c 0.09963,0 0.179839,0.08198 0.179839,0.183758 v 2.113216 c 0,0.101803 -0.08023,0.183759 -0.179839,0.183759 h -2.068141 c -0.09963,0 -0.179837,-0.08197 -0.179837,-0.183759 v -2.113216 c 0,-0.101801 0.08024,-0.183758 0.179837,-0.183758 z" /><path
         id="rect463"
         style="display:inline;fill:#2c6e49;fill-opacity:1;stroke:none;stroke-width:0.183502;stroke-linecap:round;stroke-linejoin:round;stroke-dasharray:none;stroke-opacity:1;paint-order:stroke fill markers"
         d="m 63.95739,48.002766 h 2.0456 c 0.09854,0 0.17788,0.08198 0.17788,0.183758 v 2.113216 c 0,0.101803 -0.07935,0.183759 -0.17788,0.183759 h -2.0456 c -0.09854,0 -0.177878,-0.08197 -0.177878,-0.183759 v -2.113216 c 0,-0.101801 0.07937,-0.183758 0.177878,-0.183758 z" /><path
         id="rect465"
         style="display:inline;fill:#2c6e49;fill-opacity:1;stroke:none;stroke-width:0.183502;stroke-linecap:round;stroke-linejoin:round;stroke-dasharray:none;stroke-opacity:1;paint-order:stroke fill markers"
         d="m 67.071535,48.002766 h 2.045601 c 0.09854,0 0.17788,0.08198 0.17788,0.183758 v 2.113216 c 0,0.101803 -0.07935,0.183759 -0.17788,0.183759 h -2.045601 c -0.09854,0 -0.177877,-0.08197 -0.177877,-0.183759 v -2.113216 c 0,-0.101801 0.07937,-0.183758 0.177877,-0.183758 z" /><path
         id="rect467"
         style="display:inline;fill:#2c6e49;fill-opacity:1;stroke:none;stroke-width:0.183502;stroke-linecap:round;stroke-linejoin:round;stroke-dasharray:none;stroke-opacity:1;paint-order:stroke fill markers"
         d="m 70.208965,48.002766 h 2.0456 c 0.09854,0 0.17788,0.08198 0.17788,0.183758 v 2.113216 c 0,0.101803 -0.07935,0.183759 -0.17788,0.183759 h -2.0456 c -0.09854,0 -0.177878,-0.08197 -0.177878,-0.183759 v -2.113216 c 0,-0.101801 0.07937,-0.183758 0.177878,-0.183758 z" /><path
         id="rect469"
         style="display:inline;fill:#2c6e49;fill-opacity:1;stroke:none;stroke-width:0.183502;stroke-linecap:round;stroke-linejoin:round;stroke-dasharray:none;stroke-opacity:1;paint-order:stroke fill markers"
         d="m 73.332371,48.002766 h 2.0456 c 0.09854,0 0.17788,0.08198 0.17788,0.183758 v 2.113216 c 0,0.101803 -0.07935,0.183759 -0.17788,0.183759 h -2.0456 c -0.09854,0 -0.177878,-0.08197 -0.177878,-0.183759 v -2.113216 c 0,-0.101801 0.07937,-0.183758 0.177878,-0.183758 z" /><path
         id="rect471"
         style="display:inline;fill:#2c6e49;fill-opacity:1;stroke:none;stroke-width:0.183502;stroke-linecap:round;stroke-linejoin:round;stroke-dasharray:none;stroke-opacity:1;paint-order:stroke fill markers"
         d="m 76.435139,48.002766 h 2.045601 c 0.09854,0 0.17788,0.08198 0.17788,0.183758 v 2.113216 c 0,0.101803 -0.07935,0.183759 -0.17788,0.183759 h -2.045601 c -0.09854,0 -0.177877,-0.08197 -0.177877,-0.183759 v -2.113216 c 0,-0.101801 0.07937,-0.183758 0.177877,-0.183758 z" /><path
         id="rect473"
         style="display:inline;fill:#2c6e49;fill-opacity:1;stroke:none;stroke-width:0.182488;stroke-linecap:round;stroke-linejoin:round;stroke-dasharray:none;stroke-opacity:1;paint-order:stroke fill markers"
         d="m 79.5632,48.002766 h 2.023064 c 0.09745,0 0.175919,0.08198 0.175919,0.183758 v 2.113216 c 0,0.101803 -0.07848,0.183759 -0.175919,0.183759 H 79.5632 c -0.09745,0 -0.175917,-0.08197 -0.175917,-0.183759 v -2.113216 c 0,-0.101801 0.0785,-0.183758 0.175917,-0.183758 z" /><path
         id="rect475"
         style="display:inline;fill:#2c6e49;fill-opacity:1;stroke:none;stroke-width:0.18451;stroke-linecap:round;stroke-linejoin:round;stroke-dasharray:none;stroke-opacity:1;paint-order:stroke fill markers"
         d="m 82.69079,48.002766 h 2.068141 c 0.09963,0 0.17984,0.08198 0.17984,0.183758 v 2.113216 c 0,0.101803 -0.08022,0.183759 -0.17984,0.183759 H 82.69079 c -0.09963,0 -0.179836,-0.08197 -0.179836,-0.183759 v -2.113216 c 0,-0.101801 0.08024,-0.183758 0.179836,-0.183758 z" /><path
         id="rect477"
         style="display:inline;fill:#2c6e49;fill-opacity:1;stroke:none;stroke-width:0.18451;stroke-linecap:round;stroke-linejoin:round;stroke-dasharray:none;stroke-opacity:1;paint-order:stroke fill markers"
         d="m 85.793296,48.002766 h 2.068139 c 0.09963,0 0.17984,0.08198 0.17984,0.183758 v 2.113216 c 0,0.101803 -0.08024,0.183759 -0.17984,0.183759 h -2.068139 c -0.09963,0 -0.179838,-0.08197 -0.179838,-0.183759 v -2.113216 c 0,-0.101801 0.08024,-0.183758 0.179838,-0.183758 z" /><path
         id="rect479"
         style="display:inline;fill:#0b1728;fill-opacity:1;stroke:none;stroke-width:0.187973;stroke-linecap:round;stroke-linejoin:round;stroke-dasharray:none;stroke-opacity:1;paint-order:stroke fill markers"
         d="m 88.891233,48.022684 h 4.089693 c 0.103404,0 0.186651,0.08196 0.186651,0.183757 v 2.073384 c 0,0.101801 -0.08327,0.183757 -0.186651,0.183757 h -4.089693 c -0.103404,0 -0.186648,-0.08196 -0.186648,-0.183757 v -2.073384 c 0,-0.101804 0.08327,-0.183757 0.186648,-0.183757 z" /><path
         id="rect479-7"
         style="display:inline;fill:#2c6e49;fill-opacity:1;stroke:none;stroke-width:0.188703;stroke-linecap:round;stroke-linejoin:round;stroke-dasharray:none;stroke-opacity:1;paint-order:stroke fill markers"
         d="m 49.22972,51.091267 h 5.837679 c 0.104315,0 0.188297,0.08186 0.188297,0.183567 v 2.073911 c 0,0.101696 -0.08396,0.183568 -0.188297,0.183568 H 49.22972 c -0.104317,0 -0.188293,-0.08186 -0.188293,-0.183568 v -2.073911 c 0,-0.101693 0.08396,-0.183567 0.188293,-0.183567 z" /><path
         id="rect3717-6-6-5"
         style="display:inline;fill:#2c6e49;fill-opacity:1;stroke:none;stroke-width:0.185513;stroke-linecap:round;stroke-linejoin:round;stroke-dasharray:none;stroke-opacity:1;paint-order:stroke fill markers"
         d="m 56.143401,51.071499 h 2.090678 c 0.100716,0 0.1818,0.08198 0.1818,0.183757 v 2.113217 c 0,0.101803 -0.0811,0.183759 -0.1818,0.183759 h -2.090678 c -0.100716,0 -0.181797,-0.08197 -0.181797,-0.183759 v -2.113217 c 0,-0.101801 0.08111,-0.183757 0.181797,-0.183757 z" /><path
         id="rect1226"
         style="display:inline;fill:#2c6e49;fill-opacity:1;stroke:none;stroke-width:0.185515;stroke-linecap:round;stroke-linejoin:round;stroke-dasharray:none;stroke-opacity:1;paint-order:stroke fill markers"
         d="m 59.262574,51.071499 h 2.090678 c 0.100717,0 0.1818,0.08198 0.1818,0.183757 v 2.113217 c 0,0.101803 -0.0811,0.183759 -0.1818,0.183759 h -2.090678 c -0.100715,0 -0.181797,-0.08197 -0.181797,-0.183759 v -2.113217 c 0,-0.101801 0.08111,-0.183757 0.181797,-0.183757 z" /><path
         id="rect1228"
         style="display:inline;fill:#2c6e49;fill-opacity:1;stroke:none;stroke-width:0.18451;stroke-linecap:round;stroke-linejoin:round;stroke-dasharray:none;stroke-opacity:1;paint-order:stroke fill markers"
         d="m 62.431646,51.071499 h 2.068139 c 0.09963,0 0.17984,0.08198 0.17984,0.183757 v 2.113217 c 0,0.101803 -0.08023,0.183759 -0.17984,0.183759 h -2.068139 c -0.09963,0 -0.179838,-0.08197 -0.179838,-0.183759 v -2.113217 c 0,-0.101801 0.08024,-0.183757 0.179838,-0.183757 z" /><path
         id="rect1230"
         style="display:inline;fill:#2c6e49;fill-opacity:1;stroke:none;stroke-width:0.18451;stroke-linecap:round;stroke-linejoin:round;stroke-dasharray:none;stroke-opacity:1;paint-order:stroke fill markers"
         d="m 65.526741,51.071499 h 2.06814 c 0.09963,0 0.17984,0.08198 0.17984,0.183757 v 2.113217 c 0,0.101803 -0.08023,0.183759 -0.17984,0.183759 h -2.06814 c -0.09963,0 -0.179837,-0.08197 -0.179837,-0.183759 v -2.113217 c 0,-0.101801 0.08024,-0.183757 0.179837,-0.183757 z" /><path
         id="rect1232"
         style="display:inline;fill:#2c6e49;fill-opacity:1;stroke:none;stroke-width:0.18451;stroke-linecap:round;stroke-linejoin:round;stroke-dasharray:none;stroke-opacity:1;paint-order:stroke fill markers"
         d="m 68.674224,51.071499 h 2.06814 c 0.09962,0 0.17984,0.08198 0.17984,0.183757 v 2.113217 c 0,0.101803 -0.08022,0.183759 -0.17984,0.183759 h -2.06814 c -0.09963,0 -0.179837,-0.08197 -0.179837,-0.183759 v -2.113217 c 0,-0.101801 0.08025,-0.183757 0.179837,-0.183757 z" /><path
         id="rect1234"
         style="display:inline;fill:#2c6e49;fill-opacity:1;stroke:none;stroke-width:0.18451;stroke-linecap:round;stroke-linejoin:round;stroke-dasharray:none;stroke-opacity:1;paint-order:stroke fill markers"
         d="m 71.766674,51.071499 h 2.06814 c 0.09963,0 0.17984,0.08198 0.17984,0.183757 v 2.113217 c 0,0.101803 -0.08023,0.183759 -0.17984,0.183759 h -2.06814 c -0.09963,0 -0.179837,-0.08197 -0.179837,-0.183759 v -2.113217 c 0,-0.101801 0.08024,-0.183757 0.179837,-0.183757 z" /><path
         id="rect1236"
         style="display:inline;fill:#2c6e49;fill-opacity:1;stroke:none;stroke-width:0.18451;stroke-linecap:round;stroke-linejoin:round;stroke-dasharray:none;stroke-opacity:1;paint-order:stroke fill markers"
         d="m 74.917069,51.071499 h 2.068139 c 0.09963,0 0.17984,0.08198 0.17984,0.183757 v 2.113217 c 0,0.101803 -0.08024,0.183759 -0.17984,0.183759 h -2.068139 c -0.09963,0 -0.179838,-0.08197 -0.179838,-0.183759 v -2.113217 c 0,-0.101801 0.08024,-0.183757 0.179838,-0.183757 z" /><path
         id="rect1238"
         style="display:inline;fill:#2c6e49;fill-opacity:1;stroke:none;stroke-width:0.18451;stroke-linecap:round;stroke-linejoin:round;stroke-dasharray:none;stroke-opacity:1;paint-order:stroke fill markers"
         d="m 78.027245,51.071499 h 2.06814 c 0.09963,0 0.17984,0.08198 0.17984,0.183757 v 2.113217 c 0,0.101803 -0.08022,0.183759 -0.17984,0.183759 h -2.06814 c -0.09963,0 -0.179837,-0.08197 -0.179837,-0.183759 v -2.113217 c 0,-0.101801 0.08025,-0.183757 0.179837,-0.183757 z" /><path
         id="rect1240"
         style="display:inline;fill:#2c6e49;fill-opacity:1;stroke:none;stroke-width:0.18451;stroke-linecap:round;stroke-linejoin:round;stroke-dasharray:none;stroke-opacity:1;paint-order:stroke fill markers"
         d="m 81.191133,51.071499 h 2.068139 c 0.09962,0 0.17984,0.08198 0.17984,0.183757 v 2.113217 c 0,0.101803 -0.08024,0.183759 -0.17984,0.183759 h -2.068139 c -0.09963,0 -0.179838,-0.08197 -0.179838,-0.183759 v -2.113217 c 0,-0.101801 0.08025,-0.183757 0.179838,-0.183757 z" /><path
         id="rect1242"
         style="display:inline;fill:#2c6e49;fill-opacity:1;stroke:none;stroke-width:0.183502;stroke-linecap:round;stroke-linejoin:round;stroke-dasharray:none;stroke-opacity:1;paint-order:stroke fill markers"
         d="m 84.323956,51.071499 h 2.0456 c 0.09854,0 0.17788,0.08198 0.17788,0.183757 v 2.113217 c 0,0.101803 -0.07935,0.183759 -0.17788,0.183759 h -2.0456 c -0.09854,0 -0.177878,-0.08197 -0.177878,-0.183759 v -2.113217 c 0,-0.101801 0.07937,-0.183757 0.177878,-0.183757 z" /><path
         id="rect1244"
         style="display:inline;fill:#2c6e49;fill-opacity:1;stroke:none;stroke-width:0.189116;stroke-linecap:round;stroke-linejoin:round;stroke-dasharray:none;stroke-opacity:1;paint-order:stroke fill markers"
         d="m 87.420855,51.091267 h 5.507769 c 0.103651,0 0.187094,0.08275 0.187094,0.185557 v 2.096388 c 0,0.102799 -0.08343,0.185559 -0.187094,0.185559 h -5.507769 c -0.103643,0 -0.187089,-0.08275 -0.187089,-0.185559 v -2.096388 c 0,-0.102796 0.08348,-0.185557 0.187089,-0.185557 z" /><path
         id="rect1248"
         style="display:inline;fill:#2c6e49;fill-opacity:1;stroke:none;stroke-width:0.18391;stroke-linecap:round;stroke-linejoin:round;stroke-dasharray:none;stroke-opacity:1;paint-order:stroke fill markers"
         d="m 52.100953,54.148597 h 2.202094 c 0.10005,0 0.180595,0.08111 0.180595,0.181798 v 2.090677 c 0,0.100716 -0.08056,0.1818 -0.180595,0.1818 h -2.202094 c -0.100047,0 -0.180594,-0.0811 -0.180594,-0.1818 v -2.090677 c 0,-0.100716 0.08056,-0.181798 0.180594,-0.181798 z" /><path
         id="rect1264"
         style="display:inline;fill:#2c6e49;fill-opacity:1;stroke:none;stroke-width:0.184899;stroke-linecap:round;stroke-linejoin:round;stroke-dasharray:none;stroke-opacity:1;paint-order:stroke fill markers"
         d="m 55.388931,54.148597 h 2.20209 c 0.100051,0 0.180597,0.08198 0.180597,0.183758 v 2.113216 c 0,0.101803 -0.08056,0.183759 -0.180597,0.183759 h -2.20209 c -0.100048,0 -0.180596,-0.08197 -0.180596,-0.183759 v -2.113216 c 0,-0.101801 0.08056,-0.183758 0.180596,-0.183758 z" /><path
         id="rect1266"
         style="display:inline;fill:#2c6e49;fill-opacity:1;stroke:none;stroke-width:0.186877;stroke-linecap:round;stroke-linejoin:round;stroke-dasharray:none;stroke-opacity:1;paint-order:stroke fill markers"
         d="m 58.667297,54.148498 h 2.730109 c 0.102202,0 0.184477,0.08198 0.184477,0.183758 v 2.113216 c 0,0.101803 -0.08229,0.183759 -0.184477,0.183759 h -2.730109 c -0.102197,0 -0.184478,-0.08197 -0.184478,-0.183759 v -2.113216 c 0,-0.101801 0.0823,-0.183758 0.184478,-0.183758 z" /><path
         id="rect1268"
         style="display:inline;fill:#2c6e49;fill-opacity:1;stroke:none;stroke-width:0.182714;stroke-linecap:round;stroke-linejoin:round;stroke-dasharray:none;stroke-opacity:1;paint-order:stroke fill markers"
         d="m 49.22656,54.148597 h 1.831329 c 0.09876,0 0.178257,0.08111 0.178257,0.181798 v 2.090677 c 0,0.100716 -0.07952,0.1818 -0.178257,0.1818 H 49.22656 c -0.09875,0 -0.178254,-0.0811 -0.178254,-0.1818 v -2.090677 c 0,-0.100716 0.07952,-0.181798 0.178254,-0.181798 z" /><path
         id="rect1270"
         style="display:inline;fill:#0b1728;fill-opacity:1;stroke:none;stroke-width:0.191696;stroke-linecap:round;stroke-linejoin:round;stroke-dasharray:none;stroke-opacity:1;paint-order:stroke fill markers"
         d="m 62.458448,54.127596 h 14.490167 c 0.106418,0 0.19209,0.08281 0.19209,0.185693 v 2.13025 c 0,0.102874 -0.0857,0.185692 -0.19209,0.185692 H 62.458448 c -0.106411,0 -0.192088,-0.08281 -0.192088,-0.185692 v -2.13025 c 0,-0.102874 0.0857,-0.185693 0.192088,-0.185693 z" /><path
         id="rect1272"
         style="display:inline;fill:#2c6e49;fill-opacity:1;stroke:none;stroke-width:0.186439;stroke-linecap:round;stroke-linejoin:round;stroke-dasharray:none;stroke-opacity:1;paint-order:stroke fill markers"
         d="m 78.039835,54.148597 h 2.706802 c 0.101329,0 0.182902,0.0823 0.182902,0.184478 v 2.121502 c 0,0.102199 -0.08159,0.184477 -0.182902,0.184477 h -2.706802 c -0.101325,0 -0.182902,-0.08229 -0.182902,-0.184477 v -2.121502 c 0,-0.102197 0.0816,-0.184478 0.182902,-0.184478 z" /><path
         id="rect1274"
         style="display:inline;fill:#2c6e49;fill-opacity:1;stroke:none;stroke-width:0.184732;stroke-linecap:round;stroke-linejoin:round;stroke-dasharray:none;stroke-opacity:1;paint-order:stroke fill markers"
         d="m 81.81408,54.148597 h 2.120296 c 0.09882,0 0.178365,0.08285 0.178365,0.185718 v 2.135755 c 0,0.102889 -0.07955,0.185719 -0.178365,0.185719 H 81.81408 c -0.09881,0 -0.178368,-0.08285 -0.178368,-0.185719 v -2.135755 c 0,-0.102887 0.07955,-0.185718 0.178368,-0.185718 z" /><path
         id="rect1276"
         style="display:inline;fill:#0b1728;fill-opacity:1;stroke:none;stroke-width:0.18273;stroke-linecap:round;stroke-linejoin:round;stroke-dasharray:none;stroke-opacity:1;paint-order:stroke fill markers"
         d="m 87.962178,55.566029 h 2.04044 c 0.100559,0 0.181517,0.07964 0.181517,0.178563 v 0.758887 c 0,0.09892 -0.08097,0.178562 -0.181517,0.178562 h -2.04044 c -0.10056,0 -0.181518,-0.07964 -0.181518,-0.178562 v -0.758887 c 0,-0.09892 0.08097,-0.178563 0.181518,-0.178563 z" /><path
         id="rect1278"
         style="display:inline;fill:#0b1728;fill-opacity:1;stroke:none;stroke-width:0.181838;stroke-linecap:round;stroke-linejoin:round;stroke-dasharray:none;stroke-opacity:1;paint-order:stroke fill markers"
         d="m 85.020944,54.758098 h 1.91342 c 0.09596,0 0.173195,0.08264 0.173195,0.185319 v 1.553414 c 0,0.102666 -0.07729,0.185317 -0.173195,0.185317 h -1.91342 c -0.09595,0 -0.173191,-0.08264 -0.173191,-0.185317 v -1.553414 c 0,-0.102669 0.07725,-0.185319 0.173191,-0.185319 z" /><path
         id="rect1280"
         style="display:inline;fill:#0b1728;fill-opacity:1;stroke:none;stroke-width:0.183865;stroke-linecap:round;stroke-linejoin:round;stroke-dasharray:none;stroke-opacity:1;paint-order:stroke fill markers"
         d="m 87.960179,54.105901 h 2.017979 c 0.09945,0 0.179519,0.08153 0.179519,0.182796 v 0.77688 c 0,0.101269 -0.08008,0.182795 -0.179519,0.182795 h -2.017979 c -0.09945,0 -0.179519,-0.08153 -0.179519,-0.182795 v -0.77688 c 0,-0.101269 0.08008,-0.182796 0.179519,-0.182796 z" /><path
         id="rect1282"
         style="display:inline;fill:#0b1728;fill-opacity:1;stroke:none;stroke-width:0.185214;stroke-linecap:round;stroke-linejoin:round;stroke-dasharray:none;stroke-opacity:1;paint-order:stroke fill markers"
         d="m 90.965425,54.73164 h 1.958226 c 0.0982,0 0.17725,0.08378 0.17725,0.187867 v 1.574776 c 0,0.104077 -0.07909,0.187865 -0.17725,0.187865 h -1.958226 c -0.0982,0 -0.177247,-0.08378 -0.177247,-0.187865 v -1.574776 c 0,-0.104079 0.0791,-0.187867 0.177247,-0.187867 z" /><path
         id="rect1299"
         style="fill:none;stroke:#0b1728;stroke-width:0.529167;stroke-linecap:round;stroke-linejoin:round;paint-order:stroke fill markers"
         d="M 47.538992,38.216974 H 94.32432 c 0.433245,0 0.78203,0.348786 0.78203,0.782031 v 19.98862 c 0,0.433245 -0.348785,0.78203 -0.78203,0.78203 H 47.538992 c -0.433245,0 -0.78203,-0.348785 -0.78203,-0.78203 v -19.98862 c 0,-0.433245 0.348785,-0.782031 0.78203,-0.782031 z" /><path
         id="rect1204-3"
         style="display:inline;fill:none;stroke:#0b1728;stroke-width:0.198437;stroke-linecap:round;stroke-linejoin:round;stroke-dasharray:none;stroke-opacity:1;paint-order:stroke fill markers"
         d="m 47.837207,38.210665 c -0.43324,0 -0.78187,0.348619 -0.78187,0.781864 V 58.98149 c 0,0.433245 0.435698,0.861434 0.868937,0.860698 l 46.399781,-0.07883 c 0.433239,-7.36e-4 0.78187,-0.34862 0.78187,-0.781865 V 38.992529 c 0,-0.433245 -0.34863,-0.781864 -0.78187,-0.781864 z m 1.111838,1.947684 h 2.32699 c 0.10831,0 0.19534,0.08755 0.19534,0.195854 v 0.996838 c 0,0.108312 -0.087,0.195854 -0.19534,0.195854 h -2.32699 c -0.10831,0 -0.19533,-0.08755 -0.19533,-0.195854 v -0.996838 c 0,-0.108311 0.087,-0.195854 0.19533,-0.195854 z m 3.20446,0 h 2.32647 c 0.10831,0 0.19534,0.08755 0.19534,0.195854 v 0.996838 c 0,0.108312 -0.087,0.195854 -0.19534,0.195854 h -2.32647 c -0.10831,0 -0.19585,-0.08755 -0.19585,-0.195854 v -0.996838 c 0,-0.108311 0.0875,-0.195854 0.19585,-0.195854 z m 3.20394,0 h 2.32647 c 0.10832,0 0.19534,0.08755 0.19534,0.195854 v 0.996838 c 0,0.108312 -0.087,0.195854 -0.19534,0.195854 h -2.32647 c -0.10832,0 -0.19586,-0.08755 -0.19586,-0.195854 v -0.996838 c 0,-0.108311 0.0876,-0.195854 0.19586,-0.195854 z m 3.20394,0 h 2.32647 c 0.10831,0 0.19534,0.08755 0.19534,0.195854 v 0.996838 c 0,0.108312 -0.087,0.195854 -0.19534,0.195854 h -2.32647 c -0.10831,0 -0.19586,-0.08755 -0.19586,-0.195854 v -0.996838 c 0,-0.108311 0.0876,-0.195854 0.19586,-0.195854 z m 3.20394,0 h 2.32647 c 0.10831,0 0.19534,0.08755 0.19534,0.195854 v 0.996838 c 0,0.108312 -0.087,0.195854 -0.19534,0.195854 h -2.32647 c -0.10831,0 -0.19534,-0.08755 -0.19534,-0.195854 v -0.996838 c 0,-0.108311 0.087,-0.195854 0.19534,-0.195854 z m 3.20393,0 h 2.32648 c 0.10831,0 0.19585,0.08755 0.19585,0.195854 v 0.996838 c 0,0.108312 -0.0875,0.195854 -0.19585,0.195854 h -2.32648 c -0.10831,0 -0.19533,-0.08755 -0.19533,-0.195854 v -0.996838 c 0,-0.108311 0.087,-0.195854 0.19533,-0.195854 z m 3.20394,0 h 2.32648 c 0.10831,0 0.19585,0.08755 0.19585,0.195854 v 0.996838 c 0,0.108312 -0.0875,0.195854 -0.19585,0.195854 h -2.32648 c -0.10831,0 -0.19533,-0.08755 -0.19533,-0.195854 v -0.996838 c 0,-0.108311 0.087,-0.195854 0.19533,-0.195854 z m 3.20394,0 h 2.32647 c 0.10831,0 0.19586,0.08755 0.19586,0.195854 v 0.996838 c 0,0.108312 -0.0875,0.195854 -0.19586,0.195854 h -2.32647 c -0.10831,0 -0.19534,-0.08755 -0.19534,-0.195854 v -0.996838 c 0,-0.108311 0.087,-0.195854 0.19534,-0.195854 z m 3.20394,0 h 2.32699 c 0.10831,0 0.19534,0.08755 0.19534,0.195854 v 0.996838 c 0,0.108312 -0.087,0.195854 -0.19534,0.195854 h -2.32699 c -0.10831,0 -0.19534,-0.08755 -0.19534,-0.195854 v -0.996838 c 0,-0.108311 0.087,-0.195854 0.19534,-0.195854 z m 3.20446,0 h 2.32647 c 0.10832,0 0.19534,0.08755 0.19534,0.195854 v 0.996838 c 0,0.108312 -0.087,0.195854 -0.19534,0.195854 h -2.32647 c -0.10831,0 -0.19586,-0.08755 -0.19586,-0.195854 v -0.996838 c 0,-0.108311 0.0876,-0.195854 0.19586,-0.195854 z m 3.20393,0 h 2.32648 c 0.10831,0 0.19533,0.08755 0.19533,0.195854 v 0.996838 c 0,0.108312 -0.087,0.195854 -0.19533,0.195854 h -2.32648 c -0.10831,0 -0.19585,-0.08755 -0.19585,-0.195854 v -0.996838 c 0,-0.108311 0.0875,-0.195854 0.19585,-0.195854 z m 3.20394,0 h 2.32648 c 0.10831,0 0.19533,0.08755 0.19533,0.195854 v 0.996838 c 0,0.108312 -0.087,0.195854 -0.19533,0.195854 h -2.32648 c -0.10832,0 -0.19533,-0.08755 -0.19533,-0.195854 v -0.996838 c 0,-0.108311 0.087,-0.195854 0.19533,-0.195854 z m 3.20394,0 h 2.32647 c 0.10831,0 0.19534,0.08755 0.19534,0.195854 v 0.996838 c 0,0.108312 -0.087,0.195854 -0.19534,0.195854 h -2.32647 c -0.10831,0 -0.19533,-0.08755 -0.19533,-0.195854 v -0.996838 c 0,-0.108311 0.087,-0.195854 0.19533,-0.195854 z m 3.20394,0 h 2.32647 c 0.10831,0 0.19586,0.08755 0.19586,0.195854 v 0.996838 c 0,0.108312 -0.0876,0.195854 -0.19586,0.195854 h -2.32647 c -0.10831,0 -0.19534,-0.08755 -0.19534,-0.195854 v -0.996838 c 0,-0.108311 0.087,-0.195854 0.19534,-0.195854 z m -41.67859,1.836065 c 0.003,-1.68e-4 0.006,0 0.01,0 h 2.24844 c 0.10831,0 0.19534,0.08703 0.19534,0.195337 v 2.248441 c 0,0.108311 -0.087,0.195337 -0.19534,0.195337 h -2.24844 c -0.10831,0 -0.19534,-0.08703 -0.19534,-0.195337 v -2.248441 c 0,-0.104927 0.0819,-0.19012 0.18552,-0.195337 z m 3.11505,0 c 0.003,-1.68e-4 0.007,0 0.0103,0 h 2.24792 c 0.10831,0 0.19586,0.08703 0.19586,0.195337 v 2.248441 c 0,0.108311 -0.0876,0.195337 -0.19586,0.195337 h -2.24792 c -0.10831,0 -0.19585,-0.08703 -0.19585,-0.195337 v -2.248441 c 0,-0.104927 0.0819,-0.19012 0.18551,-0.195337 z m 3.08715,0 c 0.003,-1.68e-4 0.006,0 0.01,0 h 2.24844 c 0.10832,0 0.19534,0.08703 0.19534,0.195337 v 2.248441 c 0,0.108311 -0.087,0.195337 -0.19534,0.195337 h -2.24844 c -0.10831,0 -0.19533,-0.08703 -0.19533,-0.195337 v -2.248441 c 0,-0.104927 0.0819,-0.19012 0.18551,-0.195337 z m 3.11764,0 c 0.003,-1.68e-4 0.006,0 0.01,0 h 2.24844 c 0.10831,0 0.19534,0.08703 0.19534,0.195337 v 2.248441 c 0,0.108311 -0.087,0.195337 -0.19534,0.195337 h -2.24844 c -0.10831,0 -0.19534,-0.08703 -0.19534,-0.195337 v -2.248441 c 0,-0.104927 0.0819,-0.19012 0.18552,-0.195337 z m 3.10007,0 c 0.003,-1.68e-4 0.007,0 0.0103,0 h 2.24792 c 0.10831,0 0.19586,0.08703 0.19586,0.195337 v 2.248441 c 0,0.108311 -0.0875,0.195337 -0.19586,0.195337 h -2.24792 c -0.10831,0 -0.19586,-0.08703 -0.19586,-0.195337 v -2.248441 c 0,-0.104927 0.0819,-0.19012 0.18552,-0.195337 z m 3.11506,0 c 0.003,-1.68e-4 0.007,0 0.0103,0 h 2.24844 c 0.10831,0 0.19534,0.08703 0.19534,0.195337 v 2.248441 c 0,0.108311 -0.087,0.195337 -0.19534,0.195337 h -2.24844 c -0.10831,0 -0.19533,-0.08703 -0.19533,-0.195337 v -2.248441 c 0,-0.104927 0.0814,-0.19012 0.185,-0.195337 z m 3.08715,0 c 0.003,-1.68e-4 0.007,0 0.0103,0 h 2.24793 c 0.10831,0 0.19585,0.08703 0.19585,0.195337 v 2.248441 c 0,0.108311 -0.0875,0.195337 -0.19585,0.195337 h -2.24793 c -0.10832,0 -0.19585,-0.08703 -0.19585,-0.195337 v -2.248441 c 0,-0.104927 0.0819,-0.19012 0.18552,-0.195337 z m 3.11764,0 c 0.003,-1.68e-4 0.006,0 0.01,0 h 2.24844 c 0.10831,0 0.19533,0.08703 0.19533,0.195337 v 2.248441 c 0,0.108311 -0.087,0.195337 -0.19533,0.195337 h -2.24844 c -0.10831,0 -0.19534,-0.08703 -0.19534,-0.195337 v -2.248441 c 0,-0.104927 0.0819,-0.19012 0.18552,-0.195337 z m 3.08405,0 c 0.003,-1.68e-4 0.007,0 0.0103,0 h 2.24793 c 0.10831,0 0.19585,0.08703 0.19585,0.195337 v 2.248441 c 0,0.108311 -0.0875,0.195337 -0.19585,0.195337 h -2.24793 c -0.10831,0 -0.19585,-0.08703 -0.19585,-0.195337 v -2.248441 c 0,-0.104927 0.0819,-0.19012 0.18552,-0.195337 z m 3.11505,0 c 0.003,-1.68e-4 0.007,0 0.0103,0 h 2.24844 c 0.10832,0 0.19533,0.08703 0.19533,0.195337 v 2.248441 c 0,0.108311 -0.087,0.195337 -0.19533,0.195337 h -2.24844 c -0.10831,0 -0.19534,-0.08703 -0.19534,-0.195337 v -2.248441 c 0,-0.104927 0.0814,-0.19012 0.185,-0.195337 z m 3.08715,0 c 0.003,-1.68e-4 0.007,0 0.0103,0 h 2.24792 c 0.10831,0 0.19585,0.08703 0.19585,0.195337 v 2.248441 c 0,0.108311 -0.0875,0.195337 -0.19585,0.195337 h -2.24792 c -0.10831,0 -0.19586,-0.08703 -0.19586,-0.195337 v -2.248441 c 0,-0.104927 0.082,-0.19012 0.18552,-0.195337 z m 3.11764,0 c 0.003,-1.68e-4 0.006,0 0.01,0 h 2.24844 c 0.10832,0 0.19534,0.08703 0.19534,0.195337 v 2.248441 c 0,0.108311 -0.087,0.195337 -0.19534,0.195337 h -2.24844 c -0.10831,0 -0.19534,-0.08703 -0.19534,-0.195337 v -2.248441 c 0,-0.104927 0.0819,-0.19012 0.18552,-0.195337 z m 3.10369,0 c 0.003,-1.68e-4 0.006,0 0.01,0 h 2.24844 c 0.10831,0 0.19533,0.08703 0.19533,0.195337 v 2.248441 c 0,0.108311 -0.087,0.195337 -0.19533,0.195337 h -2.24844 c -0.10831,0 -0.19534,-0.08703 -0.19534,-0.195337 v -2.248441 c 0,-0.104927 0.0819,-0.19012 0.18552,-0.195337 z m 3.05304,0 h 3.69021 c 0.10831,0 0.19586,0.08703 0.19586,0.195337 v 2.248441 c 0,0.108311 -0.0875,0.195337 -0.19586,0.195337 h -3.69021 c -0.10832,0 -0.19534,-0.08703 -0.19534,-0.195337 v -2.248441 c 0,-0.108312 0.087,-0.195337 0.19534,-0.195337 z m -40.28746,3.049426 h 3.69021 c 0.10831,0 0.19534,0.08755 0.19534,0.195854 v 2.248441 c 0,0.108311 -0.087,0.195337 -0.19534,0.195337 h -3.69021 c -0.10831,0 -0.19534,-0.08703 -0.19534,-0.195337 v -2.248441 c 0,-0.108311 0.087,-0.195854 0.19534,-0.195854 z m 4.60178,0 h 2.24845 c 0.10831,0 0.19585,0.08755 0.19585,0.195854 v 2.248441 c 0,0.108312 -0.0875,0.195337 -0.19585,0.195337 h -2.24845 c -0.10831,0 -0.19533,-0.08703 -0.19533,-0.195337 v -2.248441 c 0,-0.108311 0.087,-0.195854 0.19533,-0.195854 z m 3.08664,0 h 2.24844 c 0.10831,0 0.19534,0.08755 0.19534,0.195854 v 2.248441 c 0,0.108312 -0.087,0.195337 -0.19534,0.195337 h -2.24844 c -0.10831,0 -0.19534,-0.08703 -0.19534,-0.195337 v -2.248441 c 0,-0.108311 0.087,-0.195854 0.19534,-0.195854 z m 3.10058,0 h 2.24844 c 0.10831,0 0.19534,0.08755 0.19534,0.195854 v 2.248441 c 0,0.108312 -0.087,0.195337 -0.19534,0.195337 h -2.24844 c -0.10831,0 -0.19533,-0.08703 -0.19533,-0.195337 v -2.248441 c 0,-0.108311 0.087,-0.195854 0.19533,-0.195854 z m 3.09801,0 h 2.24844 c 0.10831,0 0.19533,0.08755 0.19533,0.195854 v 2.248441 c 0,0.108312 -0.087,0.195337 -0.19533,0.195337 h -2.24844 c -0.10832,0 -0.19586,-0.08703 -0.19586,-0.195337 v -2.248441 c 0,-0.108311 0.0876,-0.195854 0.19586,-0.195854 z m 3.12177,0 h 2.24844 c 0.10832,0 0.19534,0.08755 0.19534,0.195854 v 2.248441 c 0,0.108312 -0.087,0.195337 -0.19534,0.195337 h -2.24844 c -0.10831,0 -0.19534,-0.08703 -0.19534,-0.195337 v -2.248441 c 0,-0.108311 0.087,-0.195854 0.19534,-0.195854 z m 3.08663,0 h 2.24844 c 0.10831,0 0.19534,0.08755 0.19534,0.195854 v 2.248441 c 0,0.108312 -0.087,0.195337 -0.19534,0.195337 h -2.24844 c -0.10831,0 -0.19534,-0.08703 -0.19534,-0.195337 v -2.248441 c 0,-0.108311 0.087,-0.195854 0.19534,-0.195854 z m 3.10059,0 h 2.24844 c 0.10831,0 0.19534,0.08755 0.19534,0.195854 v 2.248441 c 0,0.108312 -0.087,0.195337 -0.19534,0.195337 h -2.24844 c -0.10832,0 -0.19534,-0.08703 -0.19534,-0.195337 v -2.248441 c 0,-0.108311 0.087,-0.195854 0.19534,-0.195854 z m 3.098,0 h 2.24792 c 0.10831,0 0.19586,0.08755 0.19586,0.195854 v 2.248441 c 0,0.108312 -0.0876,0.195337 -0.19586,0.195337 h -2.24792 c -0.10831,0 -0.19585,-0.08703 -0.19585,-0.195337 v -2.248441 c 0,-0.108311 0.0875,-0.195854 0.19585,-0.195854 z m 3.06183,0 h 2.24844 c 0.10831,0 0.19534,0.08755 0.19534,0.195854 v 2.248441 c 0,0.108312 -0.087,0.195337 -0.19534,0.195337 h -2.24844 c -0.10831,0 -0.19534,-0.08703 -0.19534,-0.195337 v -2.248441 c 0,-0.108311 0.087,-0.195854 0.19534,-0.195854 z m 3.08663,0 h 2.24844 c 0.10831,0 0.19534,0.08755 0.19534,0.195854 v 2.248441 c 0,0.108312 -0.087,0.195337 -0.19534,0.195337 h -2.24844 c -0.10831,0 -0.19534,-0.08703 -0.19534,-0.195337 v -2.248441 c 0,-0.108311 0.087,-0.195854 0.19534,-0.195854 z m 3.10059,0 h 2.24844 c 0.10831,0 0.19534,0.08755 0.19534,0.195854 v 2.248441 c 0,0.108312 -0.087,0.195337 -0.19534,0.195337 h -2.24844 c -0.10831,0 -0.19534,-0.08703 -0.19534,-0.195337 v -2.248441 c 0,-0.108311 0.087,-0.195854 0.19534,-0.195854 z m 3.098,0 h 2.24792 c 0.10831,0 0.19586,0.08755 0.19586,0.195854 v 2.248441 c 0,0.108312 -0.0876,0.195337 -0.19586,0.195337 h -2.24792 c -0.10831,0 -0.19585,-0.08703 -0.19585,-0.195337 v -2.248441 c 0,-0.108311 0.0875,-0.195854 0.19585,-0.195854 z m 3.09128,0 h 2.24844 c 0.10831,0 0.19534,0.08755 0.19534,0.195854 v 2.248441 c 0,0.108312 -0.087,0.195337 -0.19534,0.195337 h -2.24844 c -0.10831,0 -0.19585,-0.08703 -0.19585,-0.195337 v -2.248441 c 0,-0.108311 0.0875,-0.195854 0.19585,-0.195854 z m -36.36263,3.031856 c 0.003,-1.68e-4 0.006,0 0.01,0 h 2.24845 c 0.10831,0 0.19585,0.08703 0.19585,0.195337 v 2.248442 c 0,0.10831 -0.0875,0.195337 -0.19585,0.195337 h -2.24845 c -0.10832,0 -0.19533,-0.08703 -0.19533,-0.195337 v -2.248442 c 0,-0.104926 0.0819,-0.19012 0.18552,-0.195337 z m 3.13727,0 c 0.003,-1.68e-4 0.007,0 0.0103,0 h 2.24792 c 0.10831,0 0.19586,0.08703 0.19586,0.195337 v 2.248442 c 0,0.10831 -0.0876,0.195337 -0.19586,0.195337 h -2.24792 c -0.10831,0 -0.19586,-0.08703 -0.19586,-0.195337 v -2.248442 c 0,-0.104926 0.0819,-0.19012 0.18552,-0.195337 z m 3.12333,0 c 0.003,-1.68e-4 0.007,0 0.0103,0 h 2.24844 c 0.10831,0 0.19534,0.08703 0.19534,0.195337 v 2.248442 c 0,0.10831 -0.087,0.195337 -0.19534,0.195337 h -2.24844 c -0.10831,0 -0.19534,-0.08703 -0.19534,-0.195337 v -2.248442 c 0,-0.104926 0.0814,-0.19012 0.18501,-0.195337 z m 3.13417,0 c 0.003,-1.68e-4 0.006,0 0.01,0 h 2.24844 c 0.10831,0 0.19534,0.08703 0.19534,0.195337 v 2.248442 c 0,0.10831 -0.087,0.195337 -0.19534,0.195337 h -2.24844 c -0.10832,0 -0.19534,-0.08703 -0.19534,-0.195337 v -2.248442 c 0,-0.104926 0.0819,-0.19012 0.18552,-0.195337 z m 3.11402,0 c 0.003,-1.68e-4 0.006,0 0.01,0 h 2.24844 c 0.10832,0 0.19586,0.08703 0.19586,0.195337 v 2.248442 c 0,0.10831 -0.0875,0.195337 -0.19586,0.195337 h -2.24844 c -0.10831,0 -0.19534,-0.08703 -0.19534,-0.195337 v -2.248442 c 0,-0.104926 0.0819,-0.19012 0.18552,-0.195337 z m 3.13728,0 c 0.003,-1.68e-4 0.007,0 0.0103,0 h 2.24796 c 0.10831,0 0.19585,0.08703 0.19585,0.195337 v 2.248442 c 0,0.10831 -0.0875,0.195337 -0.19585,0.195337 h -2.24793 c -0.10831,0 -0.19585,-0.08703 -0.19585,-0.195337 v -2.248442 c 0,-0.104926 0.0819,-0.19012 0.18552,-0.195337 z m 3.12332,0 c 0.003,-1.68e-4 0.007,0 0.0103,0 h 2.24844 c 0.10832,0 0.19534,0.08703 0.19534,0.195337 v 2.248442 c 0,0.10831 -0.087,0.195337 -0.19534,0.195337 h -2.24844 c -0.10831,0 -0.19534,-0.08703 -0.19534,-0.195337 v -2.248442 c 0,-0.104926 0.0814,-0.19012 0.185,-0.195337 z m 3.10317,0 c 0.003,-1.68e-4 0.006,0 0.01,0 h 2.24844 c 0.10831,0 0.19534,0.08703 0.19534,0.195337 v 2.248442 c 0,0.10831 -0.087,0.195337 -0.19534,0.195337 h -2.24844 c -0.10831,0 -0.19534,-0.08703 -0.19534,-0.195337 v -2.248442 c 0,-0.104926 0.082,-0.19012 0.18552,-0.195337 z m 3.13004,0 c 0.003,-1.68e-4 0.006,0 0.01,0 h 2.24844 c 0.10831,0 0.19534,0.08703 0.19534,0.195337 v 2.248442 c 0,0.10831 -0.087,0.195337 -0.19534,0.195337 h -2.24844 c -0.10831,0 -0.19533,-0.08703 -0.19533,-0.195337 v -2.248442 c 0,-0.104926 0.0819,-0.19012 0.18551,-0.195337 z m 3.12333,0 c 0.003,-1.68e-4 0.006,0 0.01,0 h 2.24844 c 0.10831,0 0.19585,0.08703 0.19585,0.195337 v 2.248442 c 0,0.10831 -0.0875,0.195337 -0.19585,0.195337 h -2.24844 c -0.10831,0 -0.19534,-0.08703 -0.19534,-0.195337 v -2.248442 c 0,-0.104926 0.0819,-0.19012 0.18552,-0.195337 z m 3.10265,0 c 0.003,-1.68e-4 0.007,0 0.0103,0 h 2.24792 c 0.10831,0 0.19585,0.08703 0.19585,0.195337 v 2.248442 c 0,0.10831 -0.0875,0.195337 -0.19585,0.195337 h -2.24792 c -0.10831,0 -0.19586,-0.08703 -0.19586,-0.195337 v -2.248442 c 0,-0.104926 0.0819,-0.19012 0.18552,-0.195337 z m -36.60345,0.02119 h 4.52324 c 0.10831,0 0.19585,0.08703 0.19585,0.195336 v 2.206067 c 0,0.108311 -0.0875,0.195337 -0.19585,0.195337 h -4.52324 c -0.10831,0 -0.19585,-0.08703 -0.19585,-0.195337 v -2.206067 c 0,-0.10831 0.0876,-0.195336 0.19585,-0.195336 z m 39.70455,0 h 4.28398 c 0.10831,0 0.19534,0.08703 0.19534,0.195336 v 2.206067 c 0,0.108311 -0.087,0.195337 -0.19534,0.195337 h -4.28398 c -0.10832,0 -0.19533,-0.08703 -0.19533,-0.195337 v -2.206067 c 0,-0.10831 0.087,-0.195336 0.19533,-0.195336 z m -32.71635,3.047357 h 2.24845 c 0.10831,0 0.19533,0.08755 0.19533,0.195853 v 2.247925 c 0,0.108311 -0.087,0.195854 -0.19533,0.195854 h -2.24845 c -0.10831,0 -0.19533,-0.08755 -0.19533,-0.195854 v -2.247925 c 0,-0.108311 0.087,-0.195853 0.19533,-0.195853 z m 3.11919,0 h 2.24793 c 0.10831,0 0.19585,0.08755 0.19585,0.195853 v 2.247925 c 0,0.108311 -0.0875,0.195854 -0.19585,0.195854 h -2.24793 c -0.10831,0 -0.19585,-0.08755 -0.19585,-0.195854 v -2.247925 c 0,-0.108311 0.0875,-0.195853 0.19585,-0.195853 z m 3.17087,0 h 2.24844 c 0.10831,0 0.19534,0.08755 0.19534,0.195853 v 2.247925 c 0,0.108311 -0.087,0.195854 -0.19534,0.195854 h -2.24844 c -0.10831,0 -0.19534,-0.08755 -0.19534,-0.195854 v -2.247925 c 0,-0.108311 0.087,-0.195853 0.19534,-0.195853 z m 3.0949,0 h 2.24844 c 0.10831,0 0.19534,0.08755 0.19534,0.195853 v 2.247925 c 0,0.108311 -0.087,0.195854 -0.19534,0.195854 h -2.24844 c -0.10831,0 -0.19534,-0.08755 -0.19534,-0.195854 v -2.247925 c 0,-0.108311 0.087,-0.195853 0.19534,-0.195853 z m 3.14761,0 h 2.24844 c 0.10831,0 0.19534,0.08755 0.19534,0.195853 v 2.247925 c 0,0.108311 -0.087,0.195854 -0.19534,0.195854 h -2.24844 c -0.10831,0 -0.19533,-0.08755 -0.19533,-0.195854 v -2.247925 c 0,-0.108311 0.087,-0.195853 0.19533,-0.195853 z m 3.09284,0 h 2.24792 c 0.10831,0 0.19585,0.08755 0.19585,0.195853 v 2.247925 c 0,0.108311 -0.0875,0.195854 -0.19585,0.195854 h -2.24792 c -0.10831,0 -0.19586,-0.08755 -0.19586,-0.195854 v -2.247925 c 0,-0.108311 0.0876,-0.195853 0.19586,-0.195853 z m 3.15019,0 h 2.24844 c 0.10831,0 0.19534,0.08755 0.19534,0.195853 v 2.247925 c 0,0.108311 -0.087,0.195854 -0.19534,0.195854 h -2.24844 c -0.10831,0 -0.19585,-0.08755 -0.19585,-0.195854 v -2.247925 c 0,-0.108311 0.0875,-0.195853 0.19585,-0.195853 z m 3.10989,0 h 2.24844 c 0.10831,0 0.19585,0.08755 0.19585,0.195853 v 2.247925 c 0,0.108311 -0.0875,0.195854 -0.19585,0.195854 h -2.24844 c -0.10831,0 -0.19534,-0.08755 -0.19534,-0.195854 v -2.247925 c 0,-0.108311 0.087,-0.195853 0.19534,-0.195853 z m 3.16415,0 h 2.24844 c 0.10831,0 0.19534,0.08755 0.19534,0.195853 v 2.247925 c 0,0.108311 -0.087,0.195854 -0.19534,0.195854 h -2.24844 c -0.10832,0 -0.19534,-0.08755 -0.19534,-0.195854 v -2.247925 c 0,-0.108311 0.087,-0.195853 0.19534,-0.195853 z m 3.10833,0 h 2.24845 c 0.10831,0 0.19533,0.08755 0.19533,0.195853 v 2.247925 c 0,0.108311 -0.087,0.195854 -0.19533,0.195854 h -2.24845 c -0.10832,0 -0.19533,-0.08755 -0.19533,-0.195854 v -2.247925 c 0,-0.108311 0.087,-0.195853 0.19533,-0.195853 z m -35.10483,0.02015 h 6.06113 c 0.10831,0 0.19585,0.08703 0.19585,0.195337 v 2.208651 c 0,0.108311 -0.0875,0.195854 -0.19585,0.195854 h -6.06113 c -0.10831,0 -0.19534,-0.08755 -0.19534,-0.195854 v -2.208648 c 0,-0.108311 0.087,-0.195337 0.19534,-0.195337 z m 38.1925,0 h 5.75521 c 0.10831,0 0.19533,0.08703 0.19533,0.195337 v 2.208651 c 0,0.108311 -0.087,0.195854 -0.19533,0.195854 h -5.75521 c -0.10831,0 -0.19585,-0.08755 -0.19585,-0.195854 v -2.208648 c 0,-0.108311 0.0875,-0.195337 0.19585,-0.195337 z m 0.59996,3.040642 h 2.19729 c 0.10831,0 0.19585,0.08755 0.19585,0.195853 v 0.830957 c 0,0.108311 -0.0875,0.195337 -0.19585,0.195337 h -2.19729 c -0.10831,0 -0.19585,-0.08703 -0.19585,-0.195337 v -0.830957 c 0,-0.108311 0.0875,-0.195853 0.19585,-0.195853 z m -38.79556,0.01654 c 0.003,-1.68e-4 0.007,0 0.0103,0 h 2.00814 c 0.10831,0 0.19586,0.08703 0.19586,0.195337 v 2.248442 c 0,0.10831 -0.0875,0.195336 -0.19586,0.195336 h -2.00814 c -0.10832,0 -0.19586,-0.08703 -0.19586,-0.195336 v -2.248442 c 0,-0.104926 0.0819,-0.19012 0.18552,-0.195337 z m 2.89853,0 c 0.003,-1.68e-4 0.006,0 0.01,0 h 2.38435 c 0.10831,0 0.19534,0.08703 0.19534,0.195337 v 2.248442 c 0,0.10831 -0.087,0.195336 -0.19534,0.195336 h -2.38435 c -0.10831,0 -0.19534,-0.08703 -0.19534,-0.195336 v -2.248442 c 0,-0.104926 0.0819,-0.19012 0.18552,-0.195337 z m 3.28817,0 c 0.003,-1.68e-4 0.006,0 0.01,0 h 2.38384 c 0.10832,0 0.19585,0.08703 0.19585,0.195337 v 2.248442 c 0,0.10831 -0.0875,0.195336 -0.19585,0.195336 h -2.38384 c -0.10831,0 -0.19534,-0.08703 -0.19534,-0.195336 v -2.248442 c 0,-0.104926 0.0819,-0.19012 0.18552,-0.195337 z m 3.28404,0 h 2.89336 c 0.10831,0 0.19586,0.08703 0.19586,0.195337 v 2.248442 c 0,0.10831 -0.0876,0.195336 -0.19586,0.195336 h -2.89336 c -0.10831,0 -0.19534,-0.08703 -0.19534,-0.195336 v -2.248442 c 0,-0.108311 0.087,-0.195337 0.19534,-0.195337 z m 19.37453,0 h 2.89284 c 0.10831,0 0.19586,0.08703 0.19586,0.195337 v 2.248442 c 0,0.10831 -0.0875,0.195336 -0.19586,0.195336 h -2.89284 c -0.10832,0 -0.19586,-0.08703 -0.19586,-0.195336 v -2.248442 c 0,-0.108311 0.0875,-0.195337 0.19586,-0.195337 z m 3.76876,0 c 0.003,-1.68e-4 0.006,0 0.01,0 h 2.32389 c 0.10831,0 0.19585,0.08703 0.19585,0.195337 v 2.248442 c 0,0.10831 -0.0875,0.195336 -0.19585,0.195336 h -2.32389 c -0.10831,0 -0.19534,-0.08703 -0.19534,-0.195336 v -2.248442 c 0,-0.104926 0.0819,-0.19012 0.18552,-0.195337 z m -19.3859,0.0052 h 14.74794 c 0.10832,0 0.19534,0.08755 0.19534,0.195853 v 2.242758 c 0,0.10831 -0.087,0.195336 -0.19534,0.195336 h -14.74794 c -0.10831,0 -0.19533,-0.08703 -0.19533,-0.195336 v -2.242758 c 0,-0.10831 0.087,-0.195853 0.19533,-0.195853 z m 22.60793,0.604097 h 2.16007 c 0.10831,0 0.19534,0.08755 0.19534,0.195854 v 1.63866 c 0,0.10831 -0.087,0.195336 -0.19534,0.195336 h -2.16007 c -0.10831,0 -0.19534,-0.08703 -0.19534,-0.195336 v -1.63866 c 0,-0.108312 0.087,-0.195854 0.19534,-0.195854 z m 5.9402,0 h 2.16008 c 0.10831,0 0.19533,0.08755 0.19533,0.195854 v 1.63866 c 0,0.10831 -0.087,0.195336 -0.19533,0.195336 h -2.16008 c -0.10831,0 -0.19534,-0.08703 -0.19534,-0.195336 v -1.63866 c 0,-0.108312 0.087,-0.195854 0.19534,-0.195854 z m -2.99103,0.80822 c 0.003,-1.69e-4 0.007,0 0.0103,0 h 2.19729 c 0.10831,0 0.19585,0.08703 0.19585,0.195337 v 0.830957 c 0,0.10831 -0.0875,0.195336 -0.19585,0.195336 h -2.19729 c -0.10831,0 -0.19585,-0.08703 -0.19585,-0.195336 v -0.830957 c 0,-0.104927 0.0819,-0.19012 0.18552,-0.195337 z" /></g><g
       id="g312"
       inkscape:label="coffee"
       sodipodi:insensitive="true"><path
         style="color:#000000;fill:#0b1728;stroke-linecap:round;stroke-linejoin:round;-inkscape-stroke:none;paint-order:stroke fill markers"
         d="m 118.04191,30.194601 c -1.80436,0.268173 -3.05471,1.952753 -2.78653,3.757112 0.26817,1.80436 1.95439,3.052487 3.75875,2.784315 0.92682,-0.137748 1.70696,-0.649126 2.21022,-1.358488 0.0415,-0.05844 1.43552,0.782587 1.43552,0.782587 0.23561,0.13345 0.29786,0.0068 0.35384,-0.102491 0.0538,-0.105136 0.11055,-0.195633 -0.11887,-0.333835 0,0 -1.43117,-0.736515 -1.39905,-0.801752 0.28658,-0.581948 0.40541,-1.253642 0.30298,-1.942854 -0.26817,-1.80436 -1.95247,-3.052778 -3.75683,-2.784603 z m 0.0591,0.397973 c 1.58892,-0.236155 3.06356,0.856864 3.29971,2.445778 0.23615,1.588913 -0.85686,3.063552 -2.44578,3.299705 -1.58892,0.236154 -3.06355,-0.856865 -3.29971,-2.445779 -0.23615,-1.588913 0.85687,-3.063552 2.44578,-3.299704 z"
         id="path7851"
         sodipodi:nodetypes="ssssssssssssssss" /><circle
         style="fill:#2c6e49;fill-opacity:1;stroke:none;stroke-width:0.309007;stroke-linecap:round;stroke-linejoin:round;stroke-dasharray:none;stroke-opacity:1;paint-order:stroke fill markers"
         id="ellipse3081"
         cx="118.5178"
         cy="33.458038"
         r="2.3812499" /></g><g
       id="g323"
       inkscape:label="pencil"
       sodipodi:insensitive="true"><path
         id="rect4400"
         style="display:inline;fill:#2c6e49;stroke-width:0.349791;stroke-linecap:round;stroke-linejoin:round;paint-order:stroke fill markers"
         d="m 43.898592,30.053372 8.217249,-0.166531 c 0,0 -0.07519,0.419188 -0.06926,0.609078 0.006,0.18989 0.09211,0.518782 0.09211,0.518782 l -8.217249,0.166531 c 0,0 -0.06019,-0.326374 -0.06557,-0.515215 -0.0054,-0.188838 0.04271,-0.612645 0.04271,-0.612645 z"
         sodipodi:nodetypes="cczcczc" /><path
         style="color:#000000;fill:#0b1728;stroke-width:1.06421;stroke-linecap:round;stroke-linejoin:round;-inkscape-stroke:none;paint-order:stroke fill markers"
         d="m 42.469367,30.035666 c -0.229511,0.0043 -0.412493,0.195434 -0.408197,0.424945 l 0.0084,0.434269 c 0.0043,0.229509 0.195437,0.412486 0.424945,0.408197 l 9.639122,-0.180447 c 0.01095,-7.7e-5 0.02181,-0.0027 0.0316,-0.0077 l 1.101715,-0.590375 c 0.05087,-0.02723 0.04917,-0.100744 -0.0029,-0.125597 L 52.14181,29.86239 c -0.0094,-0.0046 -0.01988,-0.0069 -0.0304,-0.0069 z m 1.025088,0.118687 8.599498,-0.158762 c 0,0 0.83692,0.356283 0.842019,0.464496 0.0048,0.102788 -0.820271,0.522433 -0.820271,0.522433 l -8.607419,0.16102 c 0,0 -0.08887,-0.319612 -0.0917,-0.483689 -0.0029,-0.170462 0.07787,-0.505498 0.07787,-0.505498 z"
         id="rect3613"
         sodipodi:nodetypes="cccccccccccccsccsc" /></g><g
       id="g383"
       inkscape:label="pen"
       sodipodi:insensitive="true"><path
         id="rect4921"
         style="display:inline;fill:#2c6e49;stroke-width:0.273694;stroke-linecap:round;stroke-linejoin:round;paint-order:stroke fill markers"
         d="m 39.43256,35.243803 15.661122,-3.352321 c 0,0 -5.25e-4,0.353139 0.03558,0.524674 0.03791,0.180074 0.18785,0.519125 0.18785,0.519125 L 39.65599,36.287602 Z"
         sodipodi:nodetypes="ccsccc" /><path
         id="rect4629"
         style="color:#000000;fill:#0b1728;stroke-width:0.206887;stroke-linecap:round;stroke-linejoin:round;-inkscape-stroke:none;paint-order:stroke fill markers"
         d="m 40.732316,34.04919 c -0.764486,0.162436 -1.489868,0.471949 -1.855114,0.763362 -0.42633,0.340152 -0.544592,0.419536 -0.592947,0.898817 l -0.76502,0.170534 c 0,0 -0.108113,0.02883 -0.08763,0.128966 0.01751,0.08576 0.100422,0.401734 0.100422,0.401734 0.02022,0.04236 0.04006,0.05671 0.137504,0.0366 l 0.628163,-0.129541 c 0,0 0.161498,0.376337 0.429347,0.299292 0.03527,-0.01014 0.943179,-0.202188 0.970538,-0.207959 0.0012,-2.32e-4 0.0023,-1.49e-4 0.0034,-3.91e-4 l 15.679002,-3.356149 c 0.01242,-0.0027 0.02438,-0.007 0.0356,-0.01298 0,0 0.273951,-0.145712 0.545611,-0.315995 0.135828,-0.08514 0.270951,-0.175908 0.376062,-0.262757 0.05256,-0.04342 0.0978,-0.08485 0.134277,-0.131188 0.03648,-0.04633 0.07979,-0.10274 0.06133,-0.196153 -0.02041,-0.10325 -0.085,-0.127345 -0.135262,-0.153306 -0.05026,-0.02596 -0.106867,-0.04627 -0.171951,-0.06575 -0.130174,-0.03895 -0.29194,-0.07277 -0.452062,-0.102003 -0.320244,-0.05847 -0.63398,-0.09685 -0.633982,-0.09685 -0.01515,-0.0018 -0.03043,-10e-4 -0.04532,0.0023 l -15.493123,3.316361 c 0.08956,-0.127649 0.259025,-0.301636 0.576334,-0.45749 0.588532,-0.289073 2.225216,-0.36247 2.553062,-0.357455 0.327851,0.005 0.794458,-0.140114 0.987549,-0.32258 0.193092,-0.182464 0.149012,-0.256656 -0.0038,-0.259839 -0.152816,-0.0032 -0.435857,0.102185 -0.57054,0.13109 -0.320171,0.06872 -0.574829,0.138271 -1.51533,0.166157 -0.291866,0.0087 -0.59699,0.04964 -0.896136,0.11321 z M 40.0654,35.216401 55.127072,31.992394 c 0.01943,0.0024 0.297945,0.03639 0.597545,0.09109 0.154932,0.02829 0.310579,0.06162 0.422486,0.0951 0.02977,0.0089 0.04428,0.01629 0.06641,0.02471 -0.01655,0.01627 -0.02667,0.02878 -0.05043,0.04841 -0.08786,0.07259 -0.216877,0.160281 -0.347361,0.242072 -0.253707,0.159031 -0.499626,0.289998 -0.513903,0.297619 l -15.524067,3.322979 z" /></g><g
       id="g2033"
       inkscape:label="mouse"
       sodipodi:insensitive="true"><path
         id="rect7745"
         style="fill:none;stroke:#0b1728;stroke-width:0.529167;stroke-linecap:round;stroke-linejoin:round;paint-order:stroke fill markers"
         d="m 27.051259,41.770218 12.327122,0.616128 c 0.432704,0.02163 0.763644,0.387388 0.742017,0.820093 L 39.484756,55.92399 c -0.02163,0.432704 -0.387389,0.763643 -0.820093,0.742016 L 26.337541,56.049879 c -0.432705,-0.02163 -0.763645,-0.387389 -0.742018,-0.820094 l 0.635642,-12.717551 c 0.02163,-0.432704 0.387389,-0.763643 0.820094,-0.742016 z" /><path
         id="rect1056"
         style="display:inline;fill:#2c6e49;stroke-width:0.0741683;stroke-linecap:round;stroke-linejoin:round;paint-order:stroke fill markers"
         d="m 34.019638,44.661837 0.07778,0.01955 c 1.467305,0.368753 2.359814,1.738239 1.991048,3.205542 l -0.854949,3.401807 c -0.368765,1.467303 -1.8469,2.351684 -3.314202,1.982919 l -0.07778,-0.01955 C 30.374233,52.88334 29.489851,51.405207 29.858617,49.937904 l 0.854949,-3.401807 c 0.368765,-1.467303 1.838767,-2.243013 3.306072,-1.87426 z"
         sodipodi:nodetypes="sssssssss" /><path
         id="rect392"
         style="color:#000000;fill:#0b1728;stroke-linecap:round;stroke-linejoin:round;-inkscape-stroke:none;paint-order:stroke fill markers"
         d="m 33.237925,44.449838 c -1.359395,-0.08533 -2.622372,0.81014 -2.956282,2.18074 L 29.44564,50.06128 c -0.374916,1.538919 0.565276,3.085037 2.104195,3.459954 l 0.286542,0.06963 c 1.538919,0.374916 3.085037,-0.565276 3.459954,-2.104195 l 0.836003,-3.430701 c 0.374917,-1.538923 -0.565275,-3.085037 -2.104195,-3.459954 l -0.286542,-0.06963 c -0.168319,-0.041 -0.33673,-0.06607 -0.503672,-0.07655 z m 0.04515,0.269219 c 0.153175,0.0098 0.307384,0.03292 0.460616,0.07022 l -0.261966,0.987281 c -0.140198,0.0021 -0.266983,0.09914 -0.302213,0.243751 l -0.357545,1.468283 c -0.04175,0.171392 0.0608,0.342376 0.229892,0.383571 0.169097,0.0412 0.339071,-0.06337 0.380826,-0.23476 l 0.357544,-1.468284 c 0.03523,-0.144612 -0.03232,-0.288879 -0.155835,-0.35523 l 0.276372,-0.978948 c 1.400952,0.341304 2.306383,1.757361 1.965078,3.158313 l -0.836041,3.431217 c -0.341306,1.400953 -1.739799,2.251731 -3.140752,1.910427 L 31.61255,53.264747 C 30.211599,52.923444 29.360821,51.52495 29.702125,50.123996 l 0.835526,-3.431255 c 0.303976,-1.247722 1.498171,-2.053428 2.745428,-1.973684 z" /></g><g
       id="g2040"
       inkscape:label="eraser"
       sodipodi:insensitive="true"><path
         id="rect3716"
         style="fill:#2c6e49;stroke-width:0.202759;stroke-linecap:round;stroke-linejoin:round;paint-order:stroke fill markers"
         d="m 34.532454,32.873307 1.306097,-0.517016 0.699637,1.767438 -1.306097,0.517016 z" /><path
         style="color:#000000;display:inline;fill:#0b1728;stroke-width:0.766333;stroke-linecap:round;stroke-linejoin:round;-inkscape-stroke:none;paint-order:stroke fill markers"
         d="m 34.265233,32.818312 c -0.225915,0.08943 -0.337459,0.347143 -0.248031,0.573058 l 0.485336,1.226067 c 0.08943,0.225915 0.347142,0.337459 0.573058,0.248031 l 3.950968,-1.563983 c 0.225915,-0.08943 0.337459,-0.347142 0.248031,-0.573057 L 38.789259,31.50236 c -0.08943,-0.225914 -0.347142,-0.337458 -0.573057,-0.24803 z m 0.521787,0.01077 3.503552,-1.386875 c 0.124733,-0.04938 0.261435,0.0098 0.310811,0.134526 l 0.485336,1.226067 c 0.04937,0.124732 -0.0098,0.261436 -0.134525,0.310811 l -3.503553,1.386874 c -0.124732,0.04938 -0.260044,-0.01034 -0.309419,-0.135076 l -0.485337,-1.226067 c -0.04937,-0.124733 0.0084,-0.260885 0.133135,-0.31026 z"
         id="rect7865"
         sodipodi:nodetypes="ssssssssssssssssss" /></g><g
       id="g2314"
       inkscape:label="phone"
       sodipodi:insensitive="true"><path
         id="rect4003"
         style="display:inline;fill:#2c6e49;stroke-width:0.108712;stroke-linecap:round;stroke-linejoin:round;paint-order:stroke fill markers"
         d="m 90.214602,26.81391 12.262308,1.485101 -0.77938,6.435282 -12.262312,-1.485101 z" /><path
         id="path3997"
         style="fill:none;stroke:#0b1728;stroke-width:0.105833;stroke-linecap:round;stroke-linejoin:round;paint-order:stroke fill markers"
         d="m 89.566526,29.655956 a 0.39687499,0.39687499 0 0 1 -0.441714,0.346279 0.39687499,0.39687499 0 0 1 -0.346278,-0.441713 0.39687499,0.39687499 0 0 1 0.441713,-0.346279 0.39687499,0.39687499 0 0 1 0.346279,0.441713 z" /><path
         id="circle3999"
         style="fill:#0b1728;stroke-width:0.122957;stroke-linecap:round;stroke-linejoin:round;paint-order:stroke fill markers"
         d="m 102.66704,31.242573 a 0.13229166,0.13229166 0 0 1 -0.14724,0.115427 0.13229166,0.13229166 0 0 1 -0.11542,-0.147238 0.13229166,0.13229166 0 0 1 0.14723,-0.115426 0.13229166,0.13229166 0 0 1 0.11543,0.147237 z" /><path
         id="rect7863"
         style="display:inline;fill:none;stroke:#0b1728;stroke-width:0.529167;stroke-linecap:round;stroke-linejoin:round;paint-order:stroke fill markers"
         d="m 89.219059,26.72902 13.705991,1.659948 c 0.34732,0.04206 0.59305,0.355527 0.55099,0.702834 l -0.60561,5.000466 c -0.0421,0.347307 -0.35553,0.593045 -0.70284,0.550982 L 88.461596,32.983302 c -0.347307,-0.04206 -0.593045,-0.355526 -0.550982,-0.702833 l 0.605611,-5.000466 c 0.04206,-0.347307 0.355527,-0.593046 0.702834,-0.550983 z" /></g><g
       id="g557"
       inkscape:label="notepad"
       sodipodi:insensitive="true"><path
         id="rect3981"
         style="fill:#2c6e49;fill-opacity:1;stroke-width:0.995397;stroke-linecap:round;stroke-linejoin:round;paint-order:stroke fill markers"
         d="m 21.421694,34.383904 1.806368,9.912068 c 0.105132,0.576891 -0.08591,1.09156 -0.08591,1.09156 l -8.074606,1.47151 c -0.571304,0.104114 -1.11587,-0.276498 -1.221002,-0.853389 l -1.806368,-9.912068 c 2.933602,-0.532686 9.381518,-1.709681 9.381518,-1.709681 z"
         sodipodi:nodetypes="cscsscc" /><path
         id="rect3779"
         style="color:#000000;display:inline;fill:#0b1728;stroke-linecap:round;stroke-linejoin:round;-inkscape-stroke:none;paint-order:stroke fill markers"
         d="m 12.292408,35.440901 0.0744,0.408239 -0.63498,0.115718 a 0.13230472,0.13230472 0 0 0 -0.106846,0.154468 l 1.87864,10.308647 c 0.05714,0.31353 0.19941,0.570526 0.417026,0.731875 0.217615,0.161349 0.504971,0.219988 0.821687,0.16227 l 7.82058,-1.425217 c 0.313554,-0.05714 0.56127,-0.199918 0.711815,-0.417572 0.150546,-0.217653 0.196678,-0.500314 0.139533,-0.813866 L 21.527929,34.314619 a 0.13230472,0.13230472 0 0 0 -0.154466,-0.106846 l -0.702597,0.128041 -0.0744,-0.408239 -0.295884,0.05392 0.0744,0.408238 -0.847996,0.154539 -0.0744,-0.408239 -0.295884,0.05392 0.0744,0.408238 -0.847996,0.154538 -0.0744,-0.408238 -0.295884,0.05392 0.0744,0.408238 -0.848504,0.154631 -0.0744,-0.408238 -0.295376,0.05383 0.0744,0.408238 -0.848504,0.154631 -0.0744,-0.408238 -0.295884,0.05392 0.0744,0.408238 -0.847996,0.154539 -0.0744,-0.408239 -0.295884,0.05392 0.0744,0.408238 -0.848505,0.154631 -0.0744,-0.408238 -0.295375,0.05383 0.0744,0.408238 -0.848505,0.154631 -0.0744,-0.408238 z m -0.382305,0.76146 0.504324,-0.09191 0.03354,0.184038 c -0.08183,0.06947 -0.120501,0.177066 -0.10134,0.282681 0.02977,0.16337 0.186435,0.271735 0.349806,0.241962 0.16337,-0.02977 0.271734,-0.186435 0.241962,-0.349805 -0.01933,-0.105582 -0.09347,-0.192627 -0.194544,-0.22876 l -0.03354,-0.184038 0.848505,-0.154631 0.03354,0.184038 c -0.08183,0.06947 -0.120501,0.177067 -0.101339,0.282681 0.02977,0.163371 0.186435,0.271735 0.349805,0.241963 0.163371,-0.02977 0.271226,-0.186343 0.241454,-0.349713 -0.01933,-0.105582 -0.09347,-0.192627 -0.194544,-0.22876 l -0.03354,-0.184038 0.848504,-0.15463 0.03354,0.184037 c -0.08183,0.06947 -0.120501,0.177067 -0.101339,0.282682 0.02977,0.16337 0.186435,0.271734 0.349805,0.241962 0.163371,-0.02977 0.271735,-0.186435 0.241962,-0.349806 -0.01933,-0.105581 -0.09347,-0.192627 -0.194544,-0.228759 l -0.03354,-0.184038 0.847997,-0.154538 0.03354,0.184038 c -0.08183,0.06947 -0.120502,0.177066 -0.10134,0.282681 0.02977,0.16337 0.186435,0.271734 0.349805,0.241962 0.163371,-0.02977 0.271735,-0.186435 0.241962,-0.349806 -0.01933,-0.105581 -0.09347,-0.192626 -0.194544,-0.228759 l -0.03354,-0.184038 0.848505,-0.154631 0.03354,0.184038 c -0.08183,0.06947 -0.120501,0.177066 -0.10134,0.282681 0.02977,0.16337 0.185927,0.271828 0.349297,0.242055 0.163371,-0.02977 0.271735,-0.186435 0.241962,-0.349805 -0.01933,-0.105582 -0.09347,-0.192627 -0.194544,-0.22876 l -0.03354,-0.184038 0.848505,-0.154631 0.03354,0.184038 c -0.08183,0.06947 -0.120502,0.177066 -0.10134,0.282681 0.02977,0.163371 0.186435,0.271735 0.349805,0.241962 0.163371,-0.02977 0.271735,-0.186435 0.241962,-0.349805 -0.01933,-0.105582 -0.09347,-0.192626 -0.194544,-0.228759 l -0.03354,-0.184038 0.847997,-0.154539 0.03354,0.184038 c -0.08183,0.06947 -0.120501,0.177067 -0.10134,0.282681 0.02977,0.163371 0.186436,0.271735 0.349806,0.241963 0.16337,-0.02977 0.271734,-0.186435 0.241961,-0.349806 -0.01933,-0.105581 -0.09347,-0.192626 -0.194544,-0.228759 l -0.03354,-0.184038 0.847997,-0.154538 0.03354,0.184037 c -0.08183,0.06947 -0.119993,0.176974 -0.100832,0.282589 0.02977,0.16337 0.185927,0.271827 0.349297,0.242055 0.163371,-0.02977 0.271735,-0.186435 0.241962,-0.349806 -0.01933,-0.105581 -0.09347,-0.192626 -0.194543,-0.228759 l -0.03354,-0.184038 0.571939,-0.10423 1.862519,10.220187 c 0.04798,0.263262 0.01,0.466017 -0.09408,0.616485 -0.104076,0.150469 -0.280309,0.258042 -0.54357,0.306019 l -7.820586,1.425218 c -0.2601,0.0474 -0.462255,2.71e-4 -0.616447,-0.114052 -0.154193,-0.114325 -0.265347,-0.303118 -0.31333,-0.5664 z" /></g><g
       id="g573"
       inkscape:label="pins"
       sodipodi:insensitive="true"><path
         id="rect4290"
         style="fill:#2c6e49;stroke:#0b1728;stroke-width:0.102127;stroke-linecap:round;stroke-linejoin:round;stroke-dasharray:none;stroke-opacity:1;paint-order:stroke fill markers"
         d="m 64.83652,31.939023 1.503766,-1.165427 c 0.06389,-0.04951 0.155178,-0.03794 0.204689,0.02595 l 0.456449,0.588963 c 0.04951,0.06389 0.03794,0.155177 -0.02595,0.204688 0,0 -0.121135,0.11235 -0.292365,0.220248 -0.166164,0.104664 -0.38059,0.203387 -0.507608,0.302319 -0.123655,0.09631 -0.236693,0.258725 -0.379889,0.393557 -0.147819,0.13919 -0.322864,0.26496 -0.322864,0.26496 -0.07092,0.04874 -0.156191,0.02232 -0.205701,-0.04157 L 64.810591,32.14374 c -0.04951,-0.06389 -0.03794,-0.155178 0.02595,-0.204689 z"
         sodipodi:nodetypes="sssssssssssss" /><path
         id="path4293"
         style="fill:none;fill-opacity:1;stroke:#0b1728;stroke-width:0.0729477;stroke-linecap:round;stroke-linejoin:round;stroke-dasharray:none;stroke-opacity:1;paint-order:stroke fill markers"
         d="M 66.511519,31.913563 65.51827,30.837068 65.392583,30.461296 c -0.0099,-0.03754 -0.02679,-0.07203 -0.04999,-0.101995 -0.112667,-0.145256 -0.345269,-0.153525 -0.519705,-0.01848 -0.174556,0.13517 -0.224757,0.362686 -0.11212,0.508144 0.02247,0.02883 0.05048,0.05302 0.08292,0.07163 l 0.339357,0.208719 0.789121,1.241005"
         sodipodi:nodetypes="ccccccccc" /><path
         id="path4299"
         style="fill:none;fill-opacity:1;stroke:#0b1728;stroke-width:0.0650294;stroke-linecap:round;stroke-linejoin:round;stroke-dasharray:none;stroke-opacity:1;paint-order:stroke fill markers"
         d="m 69.716918,31.574666 -0.681318,1.113876 -0.04457,0.3504 c -0.0021,0.03454 -0.0109,0.06764 -0.02598,0.09787 -0.07326,0.146588 -0.275196,0.194249 -0.451189,0.106491 -0.176118,-0.08784 -0.259558,-0.278043 -0.186359,-0.424802 0.01463,-0.02911 0.03492,-0.05514 0.06005,-0.07704 l 0.260433,-0.241481 0.474244,-1.222231"
         sodipodi:nodetypes="ccccccccc" /><path
         id="rect4353"
         style="fill:#2c6e49;fill-opacity:1;stroke:#0b1728;stroke-width:0.091041;stroke-linecap:round;stroke-linejoin:round;stroke-dasharray:none;paint-order:stroke fill markers"
         d="m 68.91582,30.095965 1.886609,0.941934 c 0.03223,0.01609 0.04522,0.055 0.02913,0.08723 l -0.374179,0.749448 c -0.01609,0.03223 -0.055,0.04522 -0.08723,0.02913 l -0.648011,-0.323534 c 0,0 0.0097,-0.0884 -0.0222,-0.103724 -0.03114,-0.015 -0.09276,0.04633 -0.09276,0.04633 l -0.369728,-0.184595 c 0,0 0.0057,-0.09006 -0.02704,-0.106143 -0.03239,-0.01589 -0.09931,0.04306 -0.09931,0.04306 l -0.627557,-0.313322 c -0.03223,-0.01609 -0.04522,-0.055 -0.02913,-0.08723 l 0.374179,-0.749447 c 0.01609,-0.03223 0.055,-0.04522 0.08723,-0.02913 z"
         sodipodi:nodetypes="ssssscsccscsssss" /><path
         style="fill:none;fill-opacity:1;stroke:#0b1728;stroke-width:0.132292;stroke-linecap:round;stroke-linejoin:round;stroke-dasharray:none;stroke-opacity:1;paint-order:stroke fill markers"
         d="m 75.362668,29.868737 -0.943701,1.719138 c 0,0 -0.05538,0.174759 0.05843,0.361913 0.113929,0.187357 0.397523,0.387432 0.76762,0.235905 l 1.396578,-2.351701 c 0.01865,-0.03708 -0.01639,-0.692694 -0.688522,-0.550269 l -1.147406,1.980387 c -8.8e-5,1.52e-4 -0.03334,0.123302 0.08967,0.243909 0.09438,0.09253 0.233024,0.164863 0.48008,0.04362 l 0.736137,-1.261098"
         id="path4501"
         sodipodi:nodetypes="ccscccsscc" /><path
         style="fill:none;fill-opacity:1;stroke:#0b1728;stroke-width:0.132292;stroke-linecap:round;stroke-linejoin:round;stroke-dasharray:none;stroke-opacity:1;paint-order:stroke fill markers"
         d="m 76.789962,32.933617 0.692053,1.834958 c 0,0 0.09673,0.155729 0.312909,0.191006 0.216414,0.03532 0.552839,-0.04997 0.678453,-0.429643 l -0.87799,-2.590379 c -0.01604,-0.03828 -0.536823,-0.43808 -0.865795,0.165098 l 0.758006,2.159607 c 5.8e-5,1.65e-4 0.07197,0.10552 0.243592,0.09053 0.13167,-0.01151 0.276788,-0.06977 0.345379,-0.336293 l -0.479132,-1.379383"
         id="path4557"
         sodipodi:nodetypes="ccscccsscc" /><path
         style="fill:none;fill-opacity:1;stroke:#0b1728;stroke-width:0.132292;stroke-linecap:round;stroke-linejoin:round;stroke-dasharray:none;stroke-opacity:1;paint-order:stroke fill markers"
         d="m 79.293341,30.250926 -0.0909,1.959017 c 0,0 0.02718,0.181299 0.211731,0.299274 0.184752,0.118107 0.527457,0.172967 0.793112,-0.12596 l 0.219204,-2.726331 c 4.24e-4,-0.0415 -0.319543,-0.614806 -0.860422,-0.191137 l -0.158854,2.283253 c -1.2e-5,1.74e-4 0.02432,0.12539 0.187853,0.179566 0.12547,0.04155 0.281796,0.0455 0.450293,-0.172093 l 0.106074,-1.45637"
         id="path4559"
         sodipodi:nodetypes="ccscccsscc" /></g><g
       id="g1783"
       inkscape:label="diary"
       sodipodi:insensitive="true"><path
         id="rect1441"
         style="fill:#2c6e49;stroke-width:0.536316;stroke-linecap:round;stroke-linejoin:round;paint-order:stroke fill markers"
         d="m 104.64681,43.307739 10.71861,-2.239508 c 0.349,-0.07292 0.68868,0.149344 0.7616,0.49835 l 3.0517,14.60588 c 0.0729,0.349006 -0.14935,0.68868 -0.49835,0.7616 l -10.71861,2.239508 c -0.349,0.07292 -0.68868,-0.149345 -0.7616,-0.498351 l -3.0517,-14.60588 c -0.0729,-0.349006 0.14935,-0.688679 0.49835,-0.761599 z" /><path
         style="fill:none;fill-opacity:1;stroke:#0b1728;stroke-width:0.107263;stroke-linecap:round;stroke-linejoin:round;stroke-dasharray:none;stroke-opacity:1;paint-order:stroke fill markers"
         d="m 114.23283,41.573162 1.03498,-0.221148 c 0.23623,-0.05048 0.52822,0.154049 0.58569,0.422791 l 0.17148,0.801184"
         id="path1443"
         sodipodi:nodetypes="cssc" /><path
         style="fill:none;fill-opacity:1;stroke:#0b1728;stroke-width:0.107263;stroke-linecap:round;stroke-linejoin:round;stroke-dasharray:none;stroke-opacity:1;paint-order:stroke fill markers"
         d="m 117.48174,56.861975 1.03609,-0.215788 c 0.23651,-0.04928 0.42337,-0.354826 0.36497,-0.623368 l -0.19773,-0.907276"
         id="path1445"
         sodipodi:nodetypes="cssc" /><path
         style="fill:#0b1728;fill-opacity:1;stroke:none;stroke-width:0.107263;stroke-linecap:round;stroke-linejoin:round;stroke-dasharray:none;stroke-opacity:1;paint-order:stroke fill markers"
         d="m 113.6908,48.144767 c 0,0 -1.19073,0.371577 -0.92351,1.806911 0.26721,1.435339 1.3407,1.310572 1.48711,1.275963 0.14641,-0.03457 3.63138,-0.737815 3.63138,-0.737815 0,0 0.23994,-0.0019 0.17883,-0.291835 -0.0612,-0.289954 -0.58483,-2.838231 -0.58483,-2.838231 0,0 -0.0578,-0.227576 -0.19216,-0.207852 -0.0847,0.01237 -0.1001,0.2675 -0.17163,0.277982 0,0 -2.55788,0.535351 -3.42508,0.714854 z"
         id="path1447"
         sodipodi:nodetypes="ccscscssc" /><path
         style="fill:none;fill-opacity:1;stroke:#0b1728;stroke-width:0.107263;stroke-linecap:round;stroke-linejoin:round;stroke-dasharray:none;stroke-opacity:1;paint-order:stroke fill markers"
         d="m 116.08909,42.898463 0.77712,3.835776"
         id="path1449" /><path
         style="fill:none;fill-opacity:1;stroke:#0b1728;stroke-width:0.107263;stroke-linecap:round;stroke-linejoin:round;stroke-dasharray:none;stroke-opacity:1;paint-order:stroke fill markers"
         d="m 118.59373,54.755731 -0.52095,-2.464006"
         id="path1451" /><path
         id="rect1453"
         style="fill:#0b1728;stroke-width:0.0855814;stroke-linecap:round;stroke-linejoin:round;paint-order:stroke fill markers"
         d="m 104.66343,43.809117 c 0.10124,-0.02115 0.21209,0.102304 0.24855,0.276807 l 2.99666,14.34246 c 0.0365,0.174503 -0.0157,0.332023 -0.11692,0.353166 -0.10124,0.02115 -0.21209,-0.102303 -0.24855,-0.276806 l -2.99666,-14.34246 c -0.0365,-0.174502 0.0157,-0.332015 0.11692,-0.353167 z" /></g></g></svg>
