<?xml version="1.0" encoding="UTF-8" standalone="no"?>
<!-- Created with Inkscape (http://www.inkscape.org/) -->

<svg
   width="512"
   height="512"
   viewBox="0 0 512 512"
   version="1.1"
   id="svg5"
   xml:space="preserve"
   inkscape:version="1.2.2 (b0a8486541, 2022-12-01)"
   sodipodi:docname="education.svg"
   xmlns:inkscape="http://www.inkscape.org/namespaces/inkscape"
   xmlns:sodipodi="http://sodipodi.sourceforge.net/DTD/sodipodi-0.dtd"
   xmlns="http://www.w3.org/2000/svg"
   xmlns:svg="http://www.w3.org/2000/svg"><sodipodi:namedview
     id="namedview7"
     pagecolor="#f5f5f5"
     bordercolor="#eeeeee"
     borderopacity="1"
     inkscape:showpageshadow="0"
     inkscape:pageopacity="1"
     inkscape:pagecheckerboard="0"
     inkscape:deskcolor="#505050"
     inkscape:document-units="px"
     showgrid="false"
     inkscape:zoom="1.4142136"
     inkscape:cx="151.6744"
     inkscape:cy="222.73863"
     inkscape:window-width="1920"
     inkscape:window-height="1010"
     inkscape:window-x="0"
     inkscape:window-y="0"
     inkscape:window-maximized="1"
     inkscape:current-layer="g260"
     showguides="true" /><defs
     id="defs2" /><g
     id="g242"
     inkscape:label="book1"><path
       id="rect1786"
       style="display:inline;fill:#2c6e49;stroke-width:1.66485;stroke-linejoin:round"
       d="m 183.32829,454.64631 -0.0817,-18.14232 3.92313,-0.77791 79.55564,-0.22718 4.89784,0.65903 0.54257,18.23867 -0.52797,3.88141 -84.34214,0.32351 c -2.18567,0.009 -3.96786,-1.71476 -3.96742,-3.85887 z"
       sodipodi:nodetypes="sccccccsss" /><path
       id="rect7766"
       style="display:inline;fill:none;stroke:#0b1728;stroke-width:3;stroke-linejoin:round;stroke-dasharray:none"
       d="m 179.61213,457.32211 -0.0521,-17.56402 c -0.007,-2.21599 1.77214,-4.00527 3.98813,-4.01184 l 84.55244,-0.25058 c 2.21599,-0.007 4.00527,1.77214 4.01184,3.98813 l 0.052,17.56402 c 0.007,2.21599 -1.77214,4.00527 -3.98813,4.01184 l -84.55244,0.25058 c -2.21599,0.007 -4.00527,-1.77214 -4.01184,-3.98813 z" /><path
       id="path1970"
       style="fill:none;fill-opacity:1;stroke:#0b1728;stroke-width:3.5;stroke-linejoin:round;stroke-dasharray:none;stroke-opacity:1"
       d="m 346.86381,479.38902 2.0568,-3.21904 c 3.00023,-4.69556 1.79703,-45.64527 -3.3475,-60.19991 l -211.94282,0.10176 c 0,0 -5.27576,7.57777 -5.55552,31.15668 -0.27977,23.57888 3.9537,29.24263 7.55964,33.00789 z"
       sodipodi:nodetypes="csccscc" /><path
       style="display:inline;fill:#2c6e49;fill-opacity:1;stroke:none;stroke-width:1.99999;stroke-linejoin:round;stroke-dasharray:none;stroke-opacity:1"
       d="m 169.82933,478.29526 c 0,0 -11.33444,-29.36569 0.2316,-61.91995 l -13.70123,-0.30244 c 0,0 -9.18439,35.47146 1.34195,62.00652 z"
       id="path7763"
       sodipodi:nodetypes="ccccc" /><path
       style="display:inline;fill:none;fill-opacity:1;stroke:#0b1728;stroke-width:3;stroke-linejoin:round;stroke-dasharray:none;stroke-opacity:1"
       d="m 170.39119,480.31434 c 0,0 -12.13553,-31.38477 -0.5695,-63.93903 l -16.6685,-0.30244 c 0,0 -9.18439,37.49054 1.34194,64.0256 z"
       id="path1649-6" /></g><g
     id="g1607"
     inkscape:label="book4"
     style="display:inline"><path
       style="fill:#2c6e49;fill-opacity:1;stroke:none;stroke-width:2;stroke-linecap:round;stroke-linejoin:round;stroke-opacity:1;paint-order:stroke fill markers"
       d="m 180.09783,351.01306 c 0,0 -8.34211,22.25001 -4.32765,47.66217 0.63589,4.02533 1.28476,7.04842 3.36836,11.26432 l 214.87731,0.1685 c 0,0 8.09569,-30.49594 -3.28926,-59.17127 z"
       id="path6757"
       sodipodi:nodetypes="cscccc" /><path
       id="path1547"
       style="fill:none;stroke:#0b1728;stroke-width:3.5;stroke-linecap:round;stroke-linejoin:round;stroke-dasharray:none;stroke-opacity:1"
       d="m 279.03411,407.12724 114.29093,-0.48047 m -219.57801,0.9492 c 0,0 7.06568,-0.24751 89.4318,0.0101 m 129.49689,6.31837 c 0,0 10.29934,-35.15991 -2.32684,-63.04435 l -214.09,0.18273 c 0,0 -5.28248,7.54422 -5.54686,31.00777 -0.2644,23.46356 3.98241,29.0967 7.59906,32.8411 z"
       sodipodi:nodetypes="cccccccscc" /><path
       style="fill:#0b1728;fill-opacity:1;stroke:none;stroke-width:2.45808;stroke-linejoin:round;stroke-dasharray:none;stroke-opacity:1"
       d="m 205.39996,415.19769 c 0,0 -6.41561,-37.55703 0.0487,-63.01419 l 17.65522,0.021 c 0,0 -6.17337,35.72848 0.0933,62.2415 z"
       id="path1645" /><path
       style="fill:#0b1728;fill-opacity:1;stroke:none;stroke-width:2.45808;stroke-linejoin:round;stroke-dasharray:none;stroke-opacity:1"
       d="m 348.07928,414.31226 c 0,0 12.14227,-30.77205 0.52889,-62.67483 l 16.7058,-0.30747 c 0,0 9.22964,36.743 -1.30298,62.76019 z"
       id="path1649" /></g><g
     id="g1617"
     inkscape:label="book3"
     style="display:inline"><path
       style="fill:#2c6e49;fill-opacity:1;stroke-width:2;stroke-linecap:round;stroke-linejoin:round;paint-order:stroke fill markers"
       d="M 102.39249,257.85236 59.760623,465.39435 c 0,0 37.685248,16.56022 59.378207,12.57075 l 41.9747,-206.66054 c 0,0 -24.76998,-19.99136 -58.72104,-13.4522 z"
       id="path6123"
       sodipodi:nodetypes="ccccc" /><path
       id="path1150"
       style="fill:none;stroke:#0b1728;stroke-width:3.5;stroke-linecap:round;stroke-linejoin:round;stroke-dasharray:none;stroke-opacity:1"
       d="M 84.250132,360.89652 62.259883,469.84728 m 44.407887,-213.0462 c 0,0 -3.25729,7.18992 -19.668825,88.37392 M 55.004206,468.51744 c 0,0 45.849064,18.59345 62.853814,12.85142 l 42.93353,-210.26163 c 0,0 -6.41307,-6.75045 -29.64586,-11.81676 -23.23281,-5.06633 -29.6871,-2.03537 -34.13872,0.76147 z"
       sodipodi:nodetypes="cccccccscc" /><path
       style="fill:#0b1728;fill-opacity:1;stroke:none;stroke-width:2.48204;stroke-linejoin:round;stroke-dasharray:none;stroke-opacity:1"
       d="m 91.214672,286.68622 c 0,0 38.578408,1.37061 62.528978,12.9545 l -3.61116,17.39274 c 0,0 -34.20357,-13.40094 -61.790965,-12.65633 z"
       id="path1152" /><path
       style="fill:#0b1728;fill-opacity:1;stroke:none;stroke-width:2.48204;stroke-linejoin:round;stroke-dasharray:none;stroke-opacity:1"
       d="m 63.078437,427.46039 c 0,0 28.070722,18.26745 62.094543,13.35813 l -3.09214,16.52454 c 0,0 -38.342729,1.56897 -62.021804,-14.13844 z"
       id="path1154" /></g><g
     id="g254"
     inkscape:label="book2"><path
       id="rect1070"
       style="color:#000000;fill:#0b1728;stroke-width:0.976574;stroke-linecap:round;stroke-linejoin:round;-inkscape-stroke:none;paint-order:stroke fill markers"
       d="m 165.20567,287.21484 c -0.027,1.8e-4 -0.0531,0.003 -0.0801,0.004 -13.99118,4.51807 -11.49721,39.03629 -10.16797,46.55078 1.39047,5.32523 2.76772,14.30058 9.50976,16.23633 66.48679,0.17991 133.15515,0.1099 199.73243,0.0977 0.25902,0.78804 1.37379,0.78804 1.63281,0 5.10058,-8.7e-4 10.20736,-0.004 15.30664,-0.004 1.23905,0 2.24414,-1.75971 2.24414,-2.6988 0,-0.93909 -1.00509,-1.70117 -2.24414,-1.70117 h -15.53111 c 0,0 -0.79574,-3.07425 -1.35189,-13.51199 -0.30197,-5.6673 -0.7247,-15.24752 -0.46763,-21.33478 0.75292,-17.82844 2.08696,-19.23568 2.08696,-19.23568 l 15.26367,3.6e-4 c 1.23906,2e-5 2.24414,-0.76209 2.24414,-1.70117 0,-0.93909 -1.00508,-2.69958 -2.24414,-2.69958 z m 13.79101,4.40271 185.16016,-3.6e-4 -0.98379,3.96554 -0.75541,5.5141 -47.8341,-0.0597 c -0.47012,0.006 -0.8479,0.38921 -0.84765,0.85937 -2.5e-4,0.47017 0.37753,0.85318 0.84765,0.85938 l 47.72072,0.0449 -0.34635,7.31071 0.0163,7.42953 h -89.7832 c -1.14583,0 -1.14583,1.71875 0,1.71875 h 89.7832 l 0.16037,7.40167 0.2119,6.32735 -27.18673,-0.0318 c -1.14583,-0.001 -1.14583,1.71875 0,1.71875 h 27.20345 l 1.37675,10.9894 -185.05967,0.0345 c -2.83329,-2.72438 -7.625,-8.85435 -7.625,-26.01019 0,-18.21372 5.28424,-25.20378 7.9414,-28.0719 z"
       sodipodi:nodetypes="ccccccssscsscssccccccccccccsscccsscccsc" /><path
       style="fill:none;stroke:#0b1728;stroke-width:2;stroke-linecap:round;stroke-linejoin:round;stroke-dasharray:none;paint-order:stroke fill markers"
       d="m 287.5514,301.93248 -80.20422,-0.0269"
       id="path6926" /><path
       style="fill:none;stroke:#0b1728;stroke-width:2;stroke-linecap:round;stroke-linejoin:round;stroke-dasharray:none;paint-order:stroke fill markers"
       d="M 242.44086,318.39978 H 190.63602"
       id="path6928" /><path
       style="fill:none;stroke:#0b1728;stroke-width:2;stroke-linecap:round;stroke-linejoin:round;stroke-dasharray:none;paint-order:stroke fill markers"
       d="M 310.69908,333.81657 H 217.20891"
       id="path6930" /><path
       id="rect3577"
       style="fill:#2c6e49;fill-opacity:1;stroke-width:0.788427;stroke-linecap:round;stroke-linejoin:round;paint-order:stroke fill markers"
       d="m 208.09739,319.36125 h 16.55697 c 0.87356,0 1.57683,-0.002 1.57683,-0.002 v 18.13562 c 0,0.87359 0.22693,2.29526 -0.33444,1.62593 l -9.45237,-11.27038 -9.54849,11.42078 c -0.56033,0.67018 -0.37535,-0.90274 -0.37535,-1.77633 v -18.13562 c 0,0 0.70328,0.002 1.57685,0.002 z"
       sodipodi:nodetypes="sscsscsscs" /></g><g
     id="g1635"
     inkscape:label="scroll"><path
       style="fill:#2c6e49;fill-opacity:1;stroke:none;stroke-width:2.00001;stroke-linecap:round;stroke-linejoin:round;stroke-dasharray:none;stroke-opacity:1;paint-order:stroke fill markers"
       d="m 394.57452,476.82582 46.64116,0.15333 c 0,0 7.38998,4.28652 8.27729,1.67186 6.02204,-17.74496 3.75221,-32.14232 0.82086,-45.43984 -0.14582,-0.66152 -7.03927,1.49431 -7.08065,0.79551 l -0.67014,-6.59299 c 0,0 -23.48248,10.10896 -76.51187,9.25148 0,0 -41.66862,2.87581 -61.98542,-4.19058 0,0 -7.14342,21.98259 0.78931,44.10089 l 44.0422,0.14304 c 7.41296,-10.8931 7.1732,-7.15567 7.1732,-7.15567 l -7.48631,12.51076 11.16261,-2.63767 2.18974,13.41215 11.07471,-14.34845 9.15186,12.87993 3.98687,-11.67287 11.73209,3.13299"
       id="path7814"
       sodipodi:nodetypes="ccsscccccccccccccc" /><path
       style="fill:#2c6e49;fill-opacity:1;stroke:none;stroke-width:2.00001;stroke-linecap:round;stroke-linejoin:round;stroke-dasharray:none;stroke-opacity:1;paint-order:stroke fill markers"
       d="m 291.04885,441.60929 -6.10619,-0.6916 c 0,0 -4.59381,19.56451 1.77286,30.25963 l 4.35089,-2.23004 c 0,0 -2.90016,-19.61026 -0.0176,-27.33799 z"
       id="path7849"
       sodipodi:nodetypes="ccccc" /><path
       style="fill:#2c6e49;fill-opacity:1;stroke:none;stroke-width:2.00001;stroke-linecap:round;stroke-linejoin:round;stroke-dasharray:none;stroke-opacity:1;paint-order:stroke fill markers"
       d="m 298.59508,437.76657 -4.26774,-0.20463 c 0,0 -5.12957,17.38699 -0.41972,36.47241 l 5.50757,-1.80294 c 0,0 -2.9115,-19.05238 -0.82011,-34.46486 z"
       id="path7852"
       sodipodi:nodetypes="ccccsc" /><path
       style="fill:none;fill-opacity:1;stroke:#0b1728;stroke-width:3;stroke-linecap:round;stroke-linejoin:round;stroke-dasharray:none;stroke-opacity:1;paint-order:stroke fill markers"
       d="m 443.11673,433.69612 7.00925,-0.64333 c 2.95651,6.73889 7.13811,27.68593 0.091,45.07847 0,0 -1.24003,2.79397 -7.37174,-0.47169 1.76496,-15.39387 0.83586,-29.59816 0.27148,-43.96345 z"
       id="path2099"
       sodipodi:nodetypes="ccccc" /><path
       style="fill:none;fill-opacity:1;stroke:#0b1728;stroke-width:3;stroke-linecap:round;stroke-linejoin:round;stroke-dasharray:none;stroke-opacity:1;paint-order:stroke fill markers"
       d="m 298.59508,437.76657 -6.77994,-0.28511 c 0,0 -6.05011,16.38684 0.79551,39.2408 l 7.10217,-2.68849 c 0,0 -3.20913,-20.85474 -1.11774,-36.26722 z"
       id="path2132" /><path
       style="fill:none;fill-opacity:1;stroke:#0b1728;stroke-width:3;stroke-linecap:round;stroke-linejoin:round;stroke-dasharray:none;stroke-opacity:1;paint-order:stroke fill markers"
       d="m 290.11302,441.32162 -7.24471,-0.68396 c 0,0 -5.41349,21.21774 2.79723,32.94576 l 4.81592,-2.44801 c 0,0 -3.25105,-22.08606 -0.36844,-29.81379 z"
       id="path2134" /><path
       style="fill:none;fill-opacity:1;stroke:#0b1728;stroke-width:3;stroke-linecap:round;stroke-linejoin:round;stroke-dasharray:none;stroke-opacity:1;paint-order:stroke fill markers"
       d="m 396.57357,479.11094 c 0,0 44.18774,0.41753 44.85696,0.22555 1.40515,-0.40311 4.97557,-12.41349 1.80265,-45.32981 l -0.67014,-6.59299 c 0,0 -23.48248,10.10896 -76.51187,9.25148 0,0 -45.09678,1.99235 -65.41358,-5.07404 0,0 -6.89855,25.0725 1.03419,47.1908"
       id="path2136"
       sodipodi:nodetypes="csccccc" /><path
       id="path2138"
       style="color:#000000;fill:#0b1728;stroke-width:1.37529;stroke-linecap:round;stroke-linejoin:round;-inkscape-stroke:none;paint-order:stroke fill markers"
       d="m 380.73047,435.08594 -15.4082,0.0898 c -0.57872,0.004 -1.03314,0.49709 -0.99024,1.07422 l 0.46484,6.08594 c -2.21996,0.92329 -4.30397,2.27377 -6.12109,4.06249 -5.64568,5.55745 -7.14719,13.74642 -4.47461,20.69337 l -10.16211,16.77148 c -0.45795,0.75473 0.21522,1.68936 1.07617,1.49414 l 12.75196,-2.91406 2.04101,12.47851 c 0.14566,0.90541 1.90973,0.52583 2.40641,-0.24508 l 9.01487,-11.65874 10.08477,12.11728 c 0.4613,0.65707 2.04576,0.97298 2.32989,0.22209 l 4.68945,-12.375 10.78321,2.91211 c 0.86485,0.23079 1.57409,-0.70372 1.11914,-1.4746 l -10.21875,-17.28321 c 2.68916,-6.86752 1.30958,-14.97234 -4.1836,-20.55273 -1.3665,-1.38821 -2.89427,-2.5221 -4.52343,-3.40626 0.0699,-0.19301 0.11024,-0.38544 0.15234,-0.59179 0.1549,-0.75914 0.21112,-1.69598 0.23437,-2.65625 0.046,-1.89672 -0.0599,-3.79756 -0.0625,-3.8457 -0.001,-0.55304 -0.45088,-1.00016 -1.00391,-0.99805 z m -25.52149,34.19922 c 0.84286,1.56579 1.91354,3.04119 3.22266,4.37109 3.14264,3.19253 7.13431,5.04712 11.26758,5.57226 l -8.23633,12.80665 -1.79492,-10.96485 c -0.0926,-0.57031 -0.64781,-0.94373 -1.21094,-0.81445 l -11.48633,2.62501 z m 34.01758,0.27539 8.13673,13.75976 -9.28126,-2.50586 c -0.49634,-0.13368 -1.01318,0.13065 -1.19531,0.61133 l -4.3457,11.46094 -9.48438,-13.4414 c 1.39094,-0.0164 2.68062,-0.16488 3.77344,-0.46485 5.41359,-1.48605 7.05692,-3.36847 9.15625,-5.4043 1.61724,-1.56831 2.62296,-2.97346 3.24023,-4.01562 z"
       sodipodi:nodetypes="ccccscccccccccccccscssccccccccccccccccsscc" /></g><g
     id="g1649"
     inkscape:label="hat"><path
       style="fill:#2c6e49;fill-opacity:1;stroke:none;stroke-width:2;stroke-linecap:round;stroke-linejoin:round;stroke-opacity:1;paint-order:stroke fill markers"
       d="m 281.90122,171.14654 -104.47681,26.26161 112.74342,29.98899 -9.21067,2.19686 -62.75046,-16.44233 0.16482,64.28697 c 0,0 -0.0482,4.98921 4.37914,4.97072 4.50659,-0.0188 125.56756,-0.17436 125.56756,-0.17436 l 0.5018,-69.04572 41.83427,-12.77303 z"
       id="path6328"
       sodipodi:nodetypes="ccccccscccc" /><path
       id="rect1843"
       style="color:#000000;display:inline;fill:#0b1728;stroke-width:1.26043;stroke-linecap:round;stroke-linejoin:round;-inkscape-stroke:none"
       d="m 282.30965,169.68628 c -2.02864,-0.0256 -3.68635,0.21332 -5.08017,0.48799 -1.39391,0.27466 -2.77711,0.62693 -4.58516,1.08839 l -99.28033,25.33405 c -1.36963,0.34953 -2.36132,0.76415 -3.01932,1.2077 -0.20592,0.11523 -0.53014,0.45289 -0.53014,0.45289 -0.37607,0.405 -0.38233,0.71426 -0.38269,1.10242 l 0.23175,40.08327 c -1.62913,0.67664 -2.78411,2.28359 -2.78411,4.14983 0,2.16473 1.5491,3.98429 3.59509,4.4026 v 3.50032 l -7.55533,7.55532 c -0.62777,0.63055 -0.18407,1.70556 0.70569,1.70978 h 15.49335 c 0.88975,-0.003 1.33346,-1.07923 0.70568,-1.70978 l -7.55184,-7.55181 v -3.50383 l 0.003,2e-5 c 2.04268,-0.42093 3.59157,-2.24025 3.59159,-4.4026 -2e-5,-1.81344 -1.09084,-3.3818 -2.64721,-4.09012 l -0.22114,-38.05052 c 0.0694,0.0195 0.11485,0.0438 0.18605,0.0632 l 39.48292,10.67999 v 66.2882 c 0,4.94814 4.03965,8.98777 8.98777,8.98775 h 120.43594 c 4.9481,2e-5 8.98774,-4.03961 8.98776,-8.98773 l -2e-5,-65.34733 39.3039,-10.03046 c 5.16459,-1.31808 5.30333,-3.53727 0.18255,-4.92221 l -99.19886,-26.82985 c -1.63075,-0.44105 -2.87631,-0.7889 -4.16738,-1.07783 -1.29103,-0.28895 -2.86196,-0.5643 -4.89059,-0.58983 z m -0.19659,3.28213 c 1.36678,0.0126 2.69569,0.23791 4.28321,0.65717 l 97.80223,25.82913 c 2.40714,0.65102 2.38897,1.65529 -0.16501,2.31011 l -97.87246,23.95337 c -3.92058,1.20626 -5.80963,0.63228 -8.8052,-0.14037 l -98.20194,-25.32963 c -2.40714,-0.65101 -2.99349,-1.65812 -0.43889,-2.31012 l 0.6031,3e-5 98.27613,-24.33691 c 1.74847,-0.43298 3.15163,-0.64368 4.51844,-0.63195 z m -65.44906,40.19965 55.72052,15.17737 c 1.95314,0.532 3.25318,0.92012 4.4412,1.2323 1.18794,0.31222 2.56235,0.67969 4.94678,0.68462 2.38446,0.005 3.66463,-0.34023 4.85199,-0.63898 1.18791,-0.29861 2.50225,-0.67847 4.4798,-1.18316 L 347.085,214.053 l -0.0997,63.93067 c -0.005,3.01862 -2.37401,5.39265 -5.39267,5.39265 l -119.53634,0.1 c -3.01862,0 -5.37404,-2.37408 -5.39264,-5.39265 z m -45.28996,27.72862 c 1.4998,0 2.69637,1.19654 2.69638,2.69632 -1e-5,1.49979 -1.19657,2.69633 -2.69635,2.69633 -1.4998,0 -2.69633,-1.19654 -2.69633,-2.69631 0,-1.49979 1.19653,-2.69634 2.6963,-2.69634 z m 4e-5,12.53372 5.32243,5.32595 h -10.64839 z"
       sodipodi:nodetypes="ssccccccscccccccccsccccssscccccssscscccscccsccsscccccsccsscsscccccc" /><path
       style="fill:none;fill-opacity:1;stroke:#0b1728;stroke-width:1.79754;stroke-linecap:round;stroke-linejoin:round;stroke-dasharray:none;stroke-opacity:1;paint-order:stroke fill markers"
       d="M 280.6191,223.32223 222.1896,207.87335"
       id="path1984" /><path
       style="fill:none;fill-opacity:1;stroke:#0b1728;stroke-width:1.79754;stroke-linecap:round;stroke-linejoin:round;stroke-dasharray:none;stroke-opacity:1;paint-order:stroke fill markers"
       d="m 218.14478,206.66352 -14.56156,-3.59775"
       id="path1986" /><path
       style="fill:none;stroke:#0b1728;stroke-width:1.79754;stroke-linecap:round;stroke-linejoin:round;paint-order:stroke fill markers"
       d="m 219.3777,231.37011 0.2279,35.44098"
       id="path317" /><path
       style="fill:none;stroke:#0b1728;stroke-width:1.79754;stroke-linecap:round;stroke-linejoin:round;paint-order:stroke fill markers"
       d="m 219.58559,271.67716 c 0,0 -1.03286,9.33763 2.07517,9.33763 3.8874,0 4.77879,0.0661 4.77879,0.0661"
       id="path471"
       sodipodi:nodetypes="csc" /></g><g
     id="g260"
     inkscape:label="star1"><path
       id="path989"
       style="fill:#2c6e49;fill-opacity:1;stroke:none;stroke-width:1.954;stroke-linecap:round;stroke-linejoin:round;paint-order:stroke fill markers"
       d="m 174.35119,160.12189 c -0.10601,1.67001 -15.84295,-5.8918 -17.51451,-5.81397 -1.67156,0.0779 -11.02282,6.31439 -12.42089,5.39484 -1.39806,-0.91957 0.90272,-11.97214 0.31215,-13.53784 -0.59056,-1.56569 -10.2133,-8.81846 -9.77078,-10.43225 0.44252,-1.6138 12.62581,-4.17187 13.93239,-5.21735 1.30657,-1.04548 6.95946,-14.51827 8.63102,-14.5961 1.67156,-0.0779 6.58597,10.59131 7.98404,11.51086 1.39807,0.91956 16.18091,2.24608 16.77147,3.81177 0.59056,1.5657 -9.24735,11.48678 -9.68987,13.10058 -0.55805,5.84634 2.13293,9.98175 1.76494,15.77946 z"
       sodipodi:nodetypes="cssssssssccc" /><path
       id="path991"
       style="fill:none;stroke:#0b1728;stroke-width:3;stroke-linecap:round;stroke-linejoin:round;stroke-dasharray:none;paint-order:stroke fill markers"
       d="m 173.56567,162.85086 c -1.33733,1.0701 -14.67619,-5.06146 -16.3871,-4.9818 -1.71091,0.0797 -14.42233,7.42411 -15.85331,6.48291 -1.43097,-0.9412 0.27855,-15.52196 -0.32591,-17.12452 -0.60446,-1.60255 -11.5175,-11.42227 -11.06456,-13.07406 0.45294,-1.65178 14.84834,-4.53164 16.18568,-5.60173 1.33733,-1.07009 7.30412,-14.48346 9.01503,-14.56312 1.71091,-0.0797 8.89823,12.72126 10.32921,13.66246 1.43098,0.9412 16.03169,2.47099 16.63615,4.07355 0.60446,1.60255 -9.34893,12.39381 -9.80187,14.0456 -0.45294,1.65178 2.60401,16.01062 1.26668,17.08071 z" /></g><g
     id="g320"
     inkscape:label="star2"><path
       id="path995"
       style="fill:#2c6e49;fill-opacity:1;stroke:none;stroke-width:1.954;stroke-linecap:round;stroke-linejoin:round;paint-order:stroke fill markers"
       d="m 286.4638,103.96123 c -0.10601,1.67001 -15.84295,-5.891795 -17.51451,-5.813965 -1.67156,0.0779 -11.02282,6.314385 -12.42089,5.394835 -1.39806,-0.91957 0.90272,-11.972135 0.31215,-13.537835 -0.59056,-1.56569 -10.2133,-8.81846 -9.77078,-10.43225 0.44252,-1.6138 12.62581,-4.17187 13.93239,-5.21735 1.30657,-1.04548 6.95946,-14.51827 8.63102,-14.5961 1.67156,-0.0779 6.58597,10.59131 7.98404,11.51086 1.39807,0.91956 16.18091,2.24608 16.77147,3.81177 0.59056,1.5657 -9.24735,11.48678 -9.68987,13.10058 -0.55805,5.84634 2.13293,9.98175 1.76494,15.779455 z"
       sodipodi:nodetypes="cssssssssccc" /><path
       id="path997"
       style="fill:none;stroke:#0b1728;stroke-width:3;stroke-linecap:round;stroke-linejoin:round;stroke-dasharray:none;paint-order:stroke fill markers"
       d="m 285.67828,106.6902 c -1.33733,1.0701 -14.67619,-5.06146 -16.3871,-4.98179 -1.71091,0.0797 -14.42233,7.42411 -15.85331,6.48291 -1.43097,-0.94121 0.27855,-15.521965 -0.32591,-17.124525 -0.60446,-1.60255 -11.5175,-11.42227 -11.06456,-13.07406 0.45294,-1.65178 14.84834,-4.53164 16.18568,-5.60173 1.33733,-1.07009 7.30412,-14.48346 9.01503,-14.56312 1.71091,-0.0797 8.89823,12.72126 10.32921,13.66246 1.43098,0.9412 16.03169,2.47099 16.63615,4.07355 0.60446,1.60255 -9.34893,12.39381 -9.80187,14.0456 -0.45294,1.65178 2.60401,16.010625 1.26668,17.080705 z" /></g><g
     id="g326"
     inkscape:label="star3"><path
       id="path8156"
       style="fill:#2c6e49;fill-opacity:1;stroke:none;stroke-width:1.954;stroke-linecap:round;stroke-linejoin:round;paint-order:stroke fill markers"
       d="m 404.88466,160.96192 c -0.10601,1.67001 -15.84295,-5.8918 -17.51451,-5.81397 -1.67156,0.0779 -11.02282,6.31439 -12.42089,5.39484 -1.39806,-0.91957 0.90272,-11.97214 0.31215,-13.53784 -0.59056,-1.56569 -10.2133,-8.81846 -9.77078,-10.43225 0.44252,-1.6138 12.62581,-4.17187 13.93239,-5.21735 1.30657,-1.04548 6.95946,-14.51827 8.63102,-14.5961 1.67156,-0.0779 6.58597,10.59131 7.98404,11.51086 1.39807,0.91956 16.18091,2.24608 16.77147,3.81177 0.59056,1.5657 -9.24735,11.48678 -9.68987,13.10058 -0.55805,5.84634 2.13293,9.98175 1.76494,15.77946 z"
       sodipodi:nodetypes="cssssssssccc" /><path
       id="path8158"
       style="fill:none;stroke:#0b1728;stroke-width:3;stroke-linecap:round;stroke-linejoin:round;stroke-dasharray:none;paint-order:stroke fill markers"
       d="m 404.09914,163.69089 c -1.33733,1.0701 -14.67619,-5.06146 -16.3871,-4.9818 -1.71091,0.0797 -14.42233,7.42411 -15.85331,6.48291 -1.43097,-0.9412 0.27855,-15.52196 -0.32591,-17.12452 -0.60446,-1.60255 -11.5175,-11.42227 -11.06456,-13.07406 0.45294,-1.65178 14.84834,-4.53164 16.18568,-5.60173 1.33733,-1.07009 7.30412,-14.48346 9.01503,-14.56312 1.71091,-0.0797 8.89823,12.72126 10.32921,13.66246 1.43098,0.9412 16.03169,2.47099 16.63615,4.07355 0.60446,1.60255 -9.34893,12.39381 -9.80187,14.0456 -0.45294,1.65178 2.60401,16.01062 1.26668,17.08071 z" /></g></svg>
