<?xml version="1.0" encoding="UTF-8" standalone="no"?>
<svg
   id="Layer_1"
   version="1.1"
   viewBox="0 0 64 64"
   xml:space="preserve"
   sodipodi:docname="social_github.svg"
   width="64"
   height="64"
   inkscape:version="1.2.2 (b0a8486541, 2022-12-01)"
   xmlns:inkscape="http://www.inkscape.org/namespaces/inkscape"
   xmlns:sodipodi="http://sodipodi.sourceforge.net/DTD/sodipodi-0.dtd"
   xmlns="http://www.w3.org/2000/svg"
   xmlns:svg="http://www.w3.org/2000/svg"><defs
     id="defs9" /><sodipodi:namedview
     id="namedview7"
     pagecolor="#f5f5f5"
     bordercolor="#eeeeee"
     borderopacity="1"
     inkscape:showpageshadow="0"
     inkscape:pageopacity="1"
     inkscape:pagecheckerboard="0"
     inkscape:deskcolor="#505050"
     showgrid="false"
     showguides="true"
     inkscape:zoom="8.9714173"
     inkscape:cx="31.600358"
     inkscape:cy="25.079649"
     inkscape:window-width="1920"
     inkscape:window-height="1010"
     inkscape:window-x="0"
     inkscape:window-y="0"
     inkscape:window-maximized="1"
     inkscape:current-layer="Layer_1" /><g
     id="g361"><path
       d="m 35.513589,48.595002 c 4.367364,-0.515749 9.012433,-2.103706 9.012433,-9.64716 0,-2.144066 -0.75502,-3.891362 -1.984728,-5.241449 0.198385,-0.515662 1.075257,-1.649028 0.0029,-4.348415 0,0 -1.619802,-0.589758 -5.351125,1.911244 -1.588045,-0.436255 -4.174188,-0.698522 -5.801893,-0.698522 -1.668064,0 -2.861613,0.322459 -4.409998,0.758714 -3.771771,-2.501002 -3.735019,-1.75023 -3.735019,-1.75023 -1.071683,2.699388 -0.209913,3.692314 -0.01162,4.207975 -1.231021,1.35 -2.19497,3.337145 -2.19497,5.481211 0,7.543454 6.085674,7.880692 10.453038,8.396441 -1.284906,1.065081 -2.668407,2.095451 -3.047682,4.105002 -6.503149,2.693604 -12.33877,-7.411924 -7.57391,-0.955791 0,0 0.921931,3.574422 7.544865,1.83336 l -0.03452,5.420691 c -0.01433,1.138791 -1.796447,1.546751 -2.78881,1.388113 -7.782021,-2.581022 -13.185914,-10.821612 -13.185914,-19.47632 0,-10.839135 8.773775,-19.612822 19.613522,-19.612822 10.798862,0 19.612909,8.773775 19.573249,19.612822 0,8.654708 -5.598385,15.999864 -13.379883,18.620545 -0.992977,0.198385 -1.38966,-0.396596 -1.38966,-0.953405 V 52.20866 c 6.6e-5,-1.827403 -0.596315,-3.017364 -1.310275,-3.613658 z m 18.898863,-8.574864 c 0,-12.388133 -10.045069,-21.865328 -22.392316,-21.865328 -12.388133,0 -21.426843,11.610793 -21.426843,21.865328 0,10.497733 9.03871,21.438921 21.426843,21.438921 12.347247,0 22.392316,-9.091674 22.392316,-21.438921 z"
       id="path9091"
       style="fill:#2c6e49;fill-opacity:1;stroke:none;stroke-width:0.933855;stroke-dasharray:none;stroke-opacity:1"
       sodipodi:nodetypes="cscccscccscccccscssccscsssss" /><path
       d="m 35.513589,48.595002 c 4.367364,-0.515749 9.012433,-2.103706 9.012433,-9.64716 0,-2.144066 -0.75502,-3.891362 -1.984728,-5.241449 0.198385,-0.515662 0.833025,-2.461343 -0.239358,-5.16073 0,0 -1.588045,-0.516362 -5.319368,1.98464 -1.588045,-0.436255 -3.334728,-0.714659 -4.962432,-0.714659 -1.668064,0 -3.41536,0.278404 -4.963745,0.714659 -3.771771,-2.501002 -5.359728,-1.98464 -5.359728,-1.98464 -1.071683,2.699387 -0.436255,4.645068 -0.237957,5.16073 -1.231022,1.35 -1.985341,3.097383 -1.985341,5.241449 0,7.543454 4.645069,9.131411 9.012432,9.64716 -0.555408,0.477315 -1.071682,1.38966 -1.270068,2.660341 -1.112043,0.476089 -4.010428,1.389659 -5.757023,-1.627705 0,0 -1.032636,-1.865661 -2.977705,-1.98464 0,0 -1.94568,-0.03966 -0.158725,1.189961 0,0 1.309727,0.596382 2.183726,2.858726 0,0 1.190661,3.772383 6.669367,2.580934 v 3.374387 c 0,0.517062 -0.396595,1.112043 -1.388959,0.953405 -7.782023,-2.581022 -13.379796,-9.965837 -13.379796,-18.620545 0,-10.839135 8.773775,-19.612822 19.613522,-19.612822 10.798862,0 19.612909,8.773775 19.573249,19.612822 0,8.654708 -5.598385,15.999864 -13.379883,18.620545 -0.992977,0.198385 -1.38966,-0.396596 -1.38966,-0.953405 V 52.20866 c 8.8e-5,-1.827403 -0.596293,-3.017364 -1.310253,-3.613658 z m 19.552559,-8.574864 c 0,-12.388133 -10.698765,-23.086285 -23.046012,-23.086285 -12.388133,0 -23.0862845,10.698152 -23.0862845,23.086285 0,12.347247 10.6981515,23.046012 23.0862845,23.046012 12.347247,0 23.046012,-10.698765 23.046012,-23.046012 z"
       id="path2"
       style="fill:none;fill-opacity:1;stroke:#0b1728;stroke-width:1.8677;stroke-dasharray:none;stroke-opacity:1"
       sodipodi:nodetypes="cscccscccscccccccscssccsccsssss" /></g></svg>
