<?xml version="1.0" encoding="UTF-8" standalone="no"?>
<svg
   version="1.1"
   viewBox="0 0 64 64"
   xml:space="preserve"
   id="svg14"
   sodipodi:docname="social_linkedin.svg"
   width="64"
   height="64"
   inkscape:version="1.2.2 (b0a8486541, 2022-12-01)"
   xmlns:inkscape="http://www.inkscape.org/namespaces/inkscape"
   xmlns:sodipodi="http://sodipodi.sourceforge.net/DTD/sodipodi-0.dtd"
   xmlns="http://www.w3.org/2000/svg"
   xmlns:svg="http://www.w3.org/2000/svg"><defs
     id="defs18" /><sodipodi:namedview
     id="namedview16"
     pagecolor="#f5f5f5"
     bordercolor="#eeeeee"
     borderopacity="1"
     inkscape:showpageshadow="0"
     inkscape:pageopacity="1"
     inkscape:pagecheckerboard="0"
     inkscape:deskcolor="#505050"
     showgrid="false"
     inkscape:zoom="6.3437499"
     inkscape:cx="32.866996"
     inkscape:cy="34.995074"
     inkscape:window-width="1920"
     inkscape:window-height="1010"
     inkscape:window-x="0"
     inkscape:window-y="0"
     inkscape:window-maximized="1"
     inkscape:current-layer="svg14"
     showguides="true" /><g
     id="g313"><rect
       height="31.903599"
       width="8.7263708"
       x="10.007689"
       y="26.254519"
       id="rect2767"
       style="fill:#2c6e49;fill-opacity:1;stroke:none;stroke-width:0.931782;stroke-dasharray:none;stroke-opacity:1" /><path
       d="m 47.971786,26.417458 c -0.113963,-0.03468 -0.221992,-0.07259 -0.341588,-0.105326 -0.144641,-0.03195 -0.288177,-0.05862 -0.435333,-0.08139 -0.569514,-0.111285 -1.19445,-0.190132 -1.926007,-0.190132 -6.257511,0 -10.22731,4.433014 -11.534516,6.144978 v -6.145075 h -8.663489 v 32.14159 h 8.663388 V 40.650446 c 0,0 5.866993,-10.27713 11.537056,-6.50209 0.784593,0.52237 1.949597,2.326085 1.949597,3.579674 V 58.182107 H 56 V 36.492567 C 56,31.63591 52.582615,27.589121 47.971786,26.417458 Z"
       id="path2769"
       style="fill:#2c6e49;fill-opacity:1;stroke:none;stroke-width:0.985571;stroke-dasharray:none;stroke-opacity:1"
       sodipodi:nodetypes="cccsccccccssccsc" /><path
       d="m 18.500299,15.484953 c 0,2.477416 -2.002997,4.485125 -4.472956,4.485125 -2.470131,0 -4.4730423,-2.007795 -4.4730423,-4.485125 C 9.5543007,13.008052 11.557212,11 14.027343,11 c 2.469959,0 4.472956,2.008052 4.472956,4.484953 z m 0,0"
       id="path2771"
       style="fill:#2c6e49;fill-opacity:1;stroke:none;stroke-width:0.851983;stroke-dasharray:none;stroke-opacity:1" /><rect
       height="33.089539"
       width="10.734059"
       x="8"
       y="26.040518"
       id="rect2"
       style="fill:none;fill-opacity:1;stroke:#0b1728;stroke-width:2;stroke-dasharray:none;stroke-opacity:1" /><path
       d="m 47.971786,26.428575 c -0.113963,-0.03571 -0.221992,-0.07474 -0.341588,-0.108431 -0.144641,-0.03289 -0.288177,-0.06035 -0.435333,-0.08379 -0.569514,-0.114566 -1.19445,-0.195739 -1.926007,-0.195739 -6.257511,0 -10.22731,4.563756 -11.534516,6.326211 V 26.040517 H 23.000182 V 59.130056 H 33.734241 V 41.081335 c 0,0 8.111499,-11.328719 11.534517,-3.008606 V 59.130056 H 56 V 36.800828 c 0,-4.999893 -3.417385,-9.166035 -8.028214,-10.372253 z m 0,0"
       id="path4"
       style="fill:none;fill-opacity:1;stroke:#0b1728;stroke-width:2;stroke-dasharray:none;stroke-opacity:1" /><path
       d="m 18.500299,16.26413 c 0,2.90782 -2.35098,5.264332 -5.250049,5.264332 -2.89927,0 -5.2501492,-2.356612 -5.2501492,-5.264332 C 8.0001008,13.356914 10.35098,11 13.25025,11 c 2.899069,0 5.250049,2.356914 5.250049,5.26413 z m 0,0"
       id="path6"
       style="fill:none;fill-opacity:1;stroke:#0b1728;stroke-width:2;stroke-dasharray:none;stroke-opacity:1" /></g></svg>
